<svg width="334" height="54" viewBox="0 0 334 54" fill="none" xmlns="http://www.w3.org/2000/svg">
    <path d="M1.78398 27.25C1.78398 24.16 2.47398 21.4 3.85398 18.97C5.26398 16.51 7.16898 14.605 9.56898 13.255C11.999 11.875 14.714 11.185 17.714 11.185C21.224 11.185 24.299 12.085 26.939 13.885C29.579 15.685 31.424 18.175 32.474 21.355H25.229C24.509 19.855 23.489 18.73 22.169 17.98C20.879 17.23 19.379 16.855 17.669 16.855C15.839 16.855 14.204 17.29 12.764 18.16C11.354 19 10.244 20.2 9.43398 21.76C8.65398 23.32 8.26398 25.15 8.26398 27.25C8.26398 29.32 8.65398 31.15 9.43398 32.74C10.244 34.3 11.354 35.515 12.764 36.385C14.204 37.225 15.839 37.645 17.669 37.645C19.379 37.645 20.879 37.27 22.169 36.52C23.489 35.74 24.509 34.6 25.229 33.1H32.474C31.424 36.31 29.579 38.815 26.939 40.615C24.329 42.385 21.254 43.27 17.714 43.27C14.714 43.27 11.999 42.595 9.56898 41.245C7.16898 39.865 5.26398 37.96 3.85398 35.53C2.47398 33.1 1.78398 30.34 1.78398 27.25ZM52.435 43.315C49.495 43.315 46.795 42.625 44.335 41.245C41.875 39.865 39.925 37.96 38.485 35.53C37.045 33.07 36.325 30.295 36.325 27.205C36.325 24.145 37.045 21.4 38.485 18.97C39.925 16.51 41.875 14.59 44.335 13.21C46.795 11.83 49.495 11.14 52.435 11.14C55.405 11.14 58.105 11.83 60.535 13.21C62.995 14.59 64.93 16.51 66.34 18.97C67.78 21.4 68.5 24.145 68.5 27.205C68.5 30.295 67.78 33.07 66.34 35.53C64.93 37.96 62.995 39.865 60.535 41.245C58.075 42.625 55.375 43.315 52.435 43.315ZM52.435 37.69C54.325 37.69 55.99 37.27 57.43 36.43C58.87 35.56 59.995 34.33 60.805 32.74C61.615 31.15 62.02 29.305 62.02 27.205C62.02 25.105 61.615 23.275 60.805 21.715C59.995 20.125 58.87 18.91 57.43 18.07C55.99 17.23 54.325 16.81 52.435 16.81C50.545 16.81 48.865 17.23 47.395 18.07C45.955 18.91 44.83 20.125 44.02 21.715C43.21 23.275 42.805 25.105 42.805 27.205C42.805 29.305 43.21 31.15 44.02 32.74C44.83 34.33 45.955 35.56 47.395 36.43C48.865 37.27 50.545 37.69 52.435 37.69ZM107.432 11.59V43H101.132V22.57L92.717 43H87.947L79.487 22.57V43H73.187V11.59H80.342L90.332 34.945L100.322 11.59H107.432ZM136.566 21.31C136.566 22.99 136.161 24.565 135.351 26.035C134.571 27.505 133.326 28.69 131.616 29.59C129.936 30.49 127.806 30.94 125.226 30.94H119.961V43H113.661V11.59H125.226C127.656 11.59 129.726 12.01 131.436 12.85C133.146 13.69 134.421 14.845 135.261 16.315C136.131 17.785 136.566 19.45 136.566 21.31ZM124.956 25.855C126.696 25.855 127.986 25.465 128.826 24.685C129.666 23.875 130.086 22.75 130.086 21.31C130.086 18.25 128.376 16.72 124.956 16.72H119.961V25.855H124.956ZM155.619 43.315C152.679 43.315 149.979 42.625 147.519 41.245C145.059 39.865 143.109 37.96 141.669 35.53C140.229 33.07 139.509 30.295 139.509 27.205C139.509 24.145 140.229 21.4 141.669 18.97C143.109 16.51 145.059 14.59 147.519 13.21C149.979 11.83 152.679 11.14 155.619 11.14C158.589 11.14 161.289 11.83 163.719 13.21C166.179 14.59 168.114 16.51 169.524 18.97C170.964 21.4 171.684 24.145 171.684 27.205C171.684 30.295 170.964 33.07 169.524 35.53C168.114 37.96 166.179 39.865 163.719 41.245C161.259 42.625 158.559 43.315 155.619 43.315ZM155.619 37.69C157.509 37.69 159.174 37.27 160.614 36.43C162.054 35.56 163.179 34.33 163.989 32.74C164.799 31.15 165.204 29.305 165.204 27.205C165.204 25.105 164.799 23.275 163.989 21.715C163.179 20.125 162.054 18.91 160.614 18.07C159.174 17.23 157.509 16.81 155.619 16.81C153.729 16.81 152.049 17.23 150.579 18.07C149.139 18.91 148.014 20.125 147.204 21.715C146.394 23.275 145.989 25.105 145.989 27.205C145.989 29.305 146.394 31.15 147.204 32.74C148.014 34.33 149.139 35.56 150.579 36.43C152.049 37.27 153.729 37.69 155.619 37.69ZM203.236 43H196.936L182.671 21.445V43H176.371V11.545H182.671L196.936 33.145V11.545H203.236V43ZM215.761 16.675V24.55H226.336V29.545H215.761V37.87H227.686V43H209.461V11.545H227.686V16.675H215.761ZM260.277 43H253.977L239.712 21.445V43H233.412V11.545H239.712L253.977 33.145V11.545H260.277V43ZM287.877 11.59V16.675H279.507V43H273.207V16.675H264.837V11.59H287.877ZM303.319 43.315C301.129 43.315 299.149 42.94 297.379 42.19C295.639 41.44 294.259 40.36 293.239 38.95C292.219 37.54 291.694 35.875 291.664 33.955H298.414C298.504 35.245 298.954 36.265 299.764 37.015C300.604 37.765 301.744 38.14 303.184 38.14C304.654 38.14 305.809 37.795 306.649 37.105C307.489 36.385 307.909 35.455 307.909 34.315C307.909 33.385 307.624 32.62 307.054 32.02C306.484 31.42 305.764 30.955 304.894 30.625C304.054 30.265 302.884 29.875 301.384 29.455C299.344 28.855 297.679 28.27 296.389 27.7C295.129 27.1 294.034 26.215 293.104 25.045C292.204 23.845 291.754 22.255 291.754 20.275C291.754 18.415 292.219 16.795 293.149 15.415C294.079 14.035 295.384 12.985 297.064 12.265C298.744 11.515 300.664 11.14 302.824 11.14C306.064 11.14 308.689 11.935 310.699 13.525C312.739 15.085 313.864 17.275 314.074 20.095H307.144C307.084 19.015 306.619 18.13 305.749 17.44C304.909 16.72 303.784 16.36 302.374 16.36C301.144 16.36 300.154 16.675 299.404 17.305C298.684 17.935 298.324 18.85 298.324 20.05C298.324 20.89 298.594 21.595 299.134 22.165C299.704 22.705 300.394 23.155 301.204 23.515C302.044 23.845 303.214 24.235 304.714 24.685C306.754 25.285 308.419 25.885 309.709 26.485C310.999 27.085 312.109 27.985 313.039 29.185C313.969 30.385 314.434 31.96 314.434 33.91C314.434 35.59 313.999 37.15 313.129 38.59C312.259 40.03 310.984 41.185 309.304 42.055C307.624 42.895 305.629 43.315 303.319 43.315Z"
          fill="#333"/>
    <circle cx="328" cy="37" r="6" fill="#18BCC7"/>
</svg>
