<?xml version="1.0" encoding="utf-8"?>
<!-- Generator: Adobe Illustrator 27.6.1, SVG Export Plug-In . SVG Version: 6.00 Build 0)  -->
<svg version="1.1" id="Color" xmlns="http://www.w3.org/2000/svg" xmlns:xlink="http://www.w3.org/1999/xlink" x="0px" y="0px"
	 viewBox="0 0 197 197" enable-background="new 0 0 197 197" xml:space="preserve">
<g>
	<g>
		<path fill="#FFBD52" d="M95.975,97.864C86.43,95.096,77.648,90.618,69.85,84.54c-7.943-6.19-14.534-13.77-19.59-22.53
			c-5.057-8.759-8.324-18.258-9.713-28.232C39.108,23.45,39.759,13.065,42.48,2.91L43.26,0l2.91,0.78
			C59.6,4.378,71.823,11.494,81.517,21.356c7.258,7.384,12.976,16.158,16.815,25.732c3.839-9.574,9.557-18.348,16.815-25.732
			c9.694-9.863,21.917-16.978,35.347-20.576l2.91-0.78l0.78,2.91c2.721,10.155,3.372,20.54,1.934,30.868
			c-1.388,9.974-4.656,19.473-9.713,28.232c-5.056,8.759-11.648,16.339-19.59,22.53c-7.733,6.027-16.433,10.48-25.886,13.254
			L98.5,98.5L95.975,97.864z M47.565,7.46c-1.882,8.415-2.237,16.973-1.051,25.488c1.281,9.202,4.297,17.966,8.963,26.05
			s10.748,15.079,18.076,20.79c7.359,5.736,15.671,9.927,24.719,12.466l0.085-0.027l0.06,0.02
			c9.037-2.54,17.341-6.729,24.694-12.459c7.328-5.711,13.409-12.706,18.076-20.79c4.667-8.084,7.682-16.849,8.963-26.05
			c1.185-8.515,0.831-17.073-1.051-25.488c-11.228,3.528-21.429,9.752-29.654,18.12c-8.683,8.834-14.977,19.824-18.204,31.781
			l-2.909,10.781l-2.909-10.781C92.197,45.404,85.903,34.414,77.22,25.58C68.995,17.212,58.794,10.988,47.565,7.46z"/>
	</g>
	<g>
		<path fill="#FFBD52" d="M97.864,101.025c-2.768,9.545-7.246,18.327-13.324,26.126c-6.19,7.943-13.77,14.534-22.53,19.59
			c-8.759,5.057-18.258,8.324-28.232,9.713c-10.328,1.438-20.714,0.787-30.868-1.934L0,153.74l0.78-2.91
			c3.598-13.43,10.714-25.653,20.576-35.347c7.384-7.258,16.158-12.976,25.732-16.815c-9.574-3.839-18.348-9.557-25.732-16.815
			C11.494,72.159,4.378,59.936,0.78,46.506L0,43.596l2.91-0.78c10.155-2.721,20.54-3.372,30.868-1.934
			c9.974,1.388,19.473,4.656,28.232,9.713c8.759,5.056,16.339,11.648,22.53,19.59c6.027,7.733,10.48,16.433,13.254,25.886L98.5,98.5
			L97.864,101.025z M7.46,149.435c8.415,1.882,16.973,2.237,25.488,1.051c9.202-1.281,17.966-4.297,26.05-8.963
			s15.079-10.748,20.79-18.076c5.736-7.359,9.927-15.671,12.466-24.719l-0.027-0.085l0.02-0.06
			c-2.54-9.037-6.729-17.341-12.459-24.694c-5.711-7.328-12.706-13.409-20.79-18.076c-8.084-4.667-16.849-7.682-26.05-8.963
			c-8.515-1.185-17.073-0.831-25.488,1.051c3.528,11.228,9.752,21.429,18.12,29.654c8.834,8.683,19.824,14.977,31.781,18.204
			l10.781,2.909l-10.781,2.909c-11.958,3.226-22.948,9.521-31.781,18.204C17.212,128.005,10.988,138.206,7.46,149.435z"/>
	</g>
	<g>
		<path fill="#FFBD52" d="M101.025,99.136c9.545,2.768,18.327,7.246,26.126,13.324c7.943,6.19,14.534,13.77,19.59,22.53
			c5.057,8.759,8.324,18.258,9.713,28.232c1.438,10.328,0.787,20.714-1.934,30.868l-0.78,2.91l-2.91-0.78
			c-13.43-3.598-25.653-10.714-35.347-20.576c-7.258-7.384-12.976-16.158-16.815-25.732c-3.839,9.574-9.557,18.348-16.815,25.732
			c-9.694,9.863-21.917,16.978-35.347,20.576l-2.91,0.78l-0.78-2.91c-2.721-10.155-3.372-20.54-1.934-30.868
			c1.388-9.974,4.656-19.473,9.713-28.232c5.056-8.759,11.648-16.339,19.59-22.53c7.733-6.027,16.433-10.48,25.886-13.254L98.5,98.5
			L101.025,99.136z M149.435,189.54c1.882-8.415,2.237-16.973,1.051-25.488c-1.281-9.202-4.297-17.966-8.963-26.05
			s-10.748-15.079-18.076-20.79c-7.359-5.736-15.671-9.927-24.719-12.466l-0.085,0.027l-0.06-0.02
			c-9.037,2.54-17.341,6.729-24.694,12.459c-7.328,5.711-13.409,12.706-18.076,20.79c-4.667,8.084-7.682,16.849-8.963,26.05
			c-1.185,8.515-0.831,17.073,1.051,25.488c11.228-3.528,21.429-9.752,29.654-18.12c8.683-8.834,14.977-19.824,18.204-31.781
			l2.909-10.781l2.909,10.781c3.226,11.958,9.521,22.948,18.204,31.781C128.005,179.788,138.206,186.012,149.435,189.54z"/>
	</g>
	<g>
		<path fill="#FFBD52" d="M99.136,95.975c2.768-9.545,7.246-18.327,13.324-26.126c6.19-7.943,13.77-14.534,22.53-19.59
			c8.759-5.057,18.258-8.324,28.232-9.713c10.328-1.438,20.714-0.787,30.868,1.934l2.91,0.78l-0.78,2.91
			c-3.598,13.43-10.714,25.653-20.576,35.347c-7.384,7.258-16.158,12.976-25.732,16.815c9.574,3.839,18.348,9.557,25.732,16.815
			c9.863,9.694,16.978,21.917,20.576,35.347l0.78,2.91l-2.91,0.78c-10.155,2.721-20.54,3.372-30.868,1.934
			c-9.974-1.388-19.473-4.656-28.232-9.713c-8.759-5.056-16.339-11.648-22.53-19.59c-6.027-7.733-10.48-16.433-13.254-25.886
			L98.5,98.5L99.136,95.975z M189.54,47.565c-8.415-1.882-16.973-2.237-25.488-1.051c-9.202,1.281-17.966,4.297-26.05,8.963
			s-15.079,10.748-20.79,18.076c-5.736,7.359-9.927,15.671-12.466,24.719l0.027,0.085l-0.02,0.06
			c2.54,9.037,6.729,17.341,12.459,24.694c5.711,7.328,12.706,13.409,20.79,18.076c8.084,4.667,16.849,7.682,26.05,8.963
			c8.515,1.185,17.073,0.831,25.488-1.051c-3.528-11.228-9.752-21.429-18.12-29.654c-8.834-8.683-19.824-14.977-31.781-18.204
			l-10.781-2.909l10.781-2.909c11.958-3.226,22.948-9.521,31.781-18.204C179.788,68.995,186.012,58.794,189.54,47.565z"/>
	</g>
</g>
</svg>
