<?xml version="1.0" encoding="utf-8"?>
<!-- Generator: Adobe Illustrator 27.2.0, SVG Export Plug-In . SVG Version: 6.00 Build 0)  -->
<svg version="1.1" id="Layer_1" xmlns="http://www.w3.org/2000/svg" xmlns:xlink="http://www.w3.org/1999/xlink" x="0px" y="0px"
	 width="180px" height="180px" viewBox="0 0 180 180" enable-background="new 0 0 180 180" xml:space="preserve">
<g>
	<g>
		<path fill="#DBB65B" d="M103.1,22c-0.7-0.8-1.6-1.5-2.6-1.9c0.7-0.8,1.2-1.8,1.5-2.8l0.1-0.2l-0.2-0.1c-1-0.4-2-0.7-3.1-0.8
			c0.3-1,0.4-2.1,0.3-3.2l0-0.2l-0.2,0c-1.1,0-2.2,0.1-3.2,0.5c-0.1-1.1-0.4-2.1-0.9-3.1l-0.1-0.2l-0.2,0.1c-1,0.4-1.9,0.9-2.7,1.6
			c-0.5-0.9-1.2-1.8-2-2.5l-0.1-0.1l-0.1,0.1c-0.8,0.7-1.4,1.6-1.9,2.6c-0.8-0.7-1.8-1.2-2.8-1.5l-0.2-0.1l-0.1,0.2
			c-0.4,1-0.7,2-0.8,3.1c-1-0.3-2.1-0.4-3.2-0.3l-0.2,0l0,0.2c0,1.1,0.1,2.2,0.5,3.2c-1.1,0.1-2.1,0.4-3.1,0.9l-0.2,0.1l0.1,0.2
			c0.4,1,0.9,1.9,1.6,2.7c-0.9,0.5-1.8,1.2-2.5,2l-0.1,0.1l0.1,0.1c0.7,0.8,1.6,1.4,2.6,1.9c-0.7,0.8-1.2,1.8-1.5,2.8l-0.1,0.2
			l0.2,0.1c0.2,0.1,0.3,0.1,0.5,0.2c0.9,0.3,1.7,0.5,2.6,0.6c-0.3,1-0.4,2.1-0.3,3.2l0,0.2l0.2,0c0.2,0,0.3,0,0.5,0
			c0.9,0,1.8-0.2,2.7-0.5c0.1,1.1,0.4,2.1,0.9,3.1l0.1,0.2l0.2-0.1c1-0.4,1.9-0.9,2.7-1.6c0.5,0.9,1.2,1.8,2,2.5l0.1,0.1l0.1-0.1
			c0.8-0.7,1.4-1.6,1.9-2.6c0.7,0.6,1.5,1,2.4,1.4c0.2,0.1,0.3,0.1,0.5,0.2l0.2,0.1l0.1-0.2c0.4-1,0.7-2,0.8-3.1
			c0.9,0.3,1.8,0.4,2.7,0.4c0.2,0,0.3,0,0.5,0l0.2,0l0-0.2c0-1.1-0.1-2.2-0.5-3.2c1.1-0.1,2.1-0.4,3.1-0.9l0.2-0.1l-0.1-0.2
			c-0.4-1-0.9-1.9-1.6-2.7c0.9-0.5,1.8-1.2,2.5-2l0.1-0.1L103.1,22z M101.6,17.3c-0.3,1-0.8,1.8-1.5,2.6c-0.9-0.4-1.8-0.6-2.8-0.7
			c0.6-0.8,1.1-1.7,1.4-2.6C99.7,16.6,100.6,16.9,101.6,17.3z M95.8,30.7c-0.9-0.3-1.8-0.8-2.6-1.5c0-0.1,0-0.3,0-0.4
			c0-0.8-0.1-1.6-0.4-2.3c0.6,0.5,1.3,0.8,2,1.1c0.1,0,0.3,0.1,0.4,0.1C95.6,28.7,95.8,29.7,95.8,30.7z M92.8,28.8
			C92.8,28.8,92.8,28.8,92.8,28.8C92.8,28.8,92.8,28.8,92.8,28.8c-0.7-0.6-1.3-1.4-1.7-2.2c0-0.7,0-1.4-0.2-2c0.4,0.5,0.8,1,1.4,1.5
			C92.6,26.9,92.8,27.8,92.8,28.8z M88.2,32.3c-0.4-0.9-0.7-1.9-0.8-2.9c0.1-0.1,0.2-0.2,0.3-0.3c0.6-0.6,1-1.2,1.4-1.9
			c0.1,0.8,0.3,1.5,0.7,2.2c0.1,0.1,0.1,0.2,0.2,0.4C89.5,30.8,88.9,31.6,88.2,32.3z M87,28.9c0,0.1,0,0.3,0,0.4
			c-0.7,0.7-1.6,1.2-2.5,1.6c0-1,0.1-2,0.4-2.9c0.1,0,0.2-0.1,0.4-0.1c0.7-0.3,1.4-0.7,2-1.2C87.1,27.3,87,28.1,87,28.9z M84.2,14.1
			c0.9,0.3,1.8,0.8,2.6,1.5c0,0.1,0,0.3,0,0.4c0,0.8,0.1,1.6,0.4,2.3c-0.6-0.5-1.3-0.8-2-1.1c-0.1,0-0.3-0.1-0.4-0.1
			C84.4,16.1,84.2,15.1,84.2,14.1z M87.2,16C87.2,15.9,87.2,15.9,87.2,16C87.2,15.9,87.2,15.9,87.2,16c0.7,0.6,1.3,1.4,1.7,2.2
			c0,0.7,0,1.4,0.2,2c-0.4-0.5-0.8-1-1.4-1.5C87.4,17.8,87.2,16.9,87.2,16z M91.8,12.4c0.4,0.9,0.7,1.9,0.8,2.9
			c-0.1,0.1-0.2,0.2-0.3,0.3c-0.5,0.6-1,1.2-1.4,1.9c-0.1-0.8-0.3-1.5-0.6-2.2c-0.1-0.1-0.1-0.2-0.2-0.4
			C90.5,13.9,91.1,13.1,91.8,12.4z M93,15.8c0-0.1,0-0.3,0-0.4c0.7-0.7,1.6-1.2,2.5-1.6c0,1-0.1,2-0.4,2.9c-0.1,0.1-0.3,0.1-0.4,0.2
			c-0.7,0.3-1.4,0.7-1.9,1.2C92.9,17.4,93,16.6,93,15.8z M90.2,21.3c0-0.8,0.2-1.5,0.4-2.2C90.6,19.8,90.4,20.6,90.2,21.3
			C90.2,21.3,90.2,21.3,90.2,21.3C90.2,21.3,90.2,21.3,90.2,21.3z M90.8,21.8C90.8,21.8,90.8,21.8,90.8,21.8c0.6-0.5,1.2-1,1.9-1.3
			C92.2,21,91.5,21.4,90.8,21.8C90.8,21.8,90.8,21.8,90.8,21.8z M91.6,20.7c0.4-0.6,0.6-1.2,0.9-1.9c0.7-0.6,1.4-1.1,2.3-1.5
			c0,0,0.1,0,0.1,0c0,0,0,0,0,0.1c-0.3,0.9-0.8,1.7-1.4,2.4C92.8,20,92.2,20.3,91.6,20.7z M90.5,21.5C90.5,21.5,90.5,21.5,90.5,21.5
			c0,0,0-0.1,0-0.1c0.3-0.7,0.8-1.4,1.3-1.9C91.5,20.2,91.1,20.9,90.5,21.5z M89.8,21.4c-0.3-0.8-0.4-1.5-0.5-2.3
			C89.5,19.8,89.7,20.5,89.8,21.4C89.8,21.3,89.8,21.4,89.8,21.4z M89.4,21.6C89.4,21.6,89.4,21.6,89.4,21.6c-0.5-0.6-1-1.2-1.3-1.9
			C88.6,20.2,89.1,20.8,89.4,21.6C89.4,21.6,89.4,21.6,89.4,21.6z M88.3,20.7c-0.6-0.4-1.2-0.6-1.8-0.9c-0.6-0.7-1.1-1.5-1.5-2.3
			c0,0,0,0,0-0.1c0,0,0,0,0.1,0c0.9,0.3,1.7,0.8,2.4,1.4C87.6,19.6,87.9,20.2,88.3,20.7z M89.2,21.8C89.2,21.8,89.2,21.8,89.2,21.8
			c-0.7-0.3-1.4-0.8-2-1.3C87.9,20.9,88.6,21.3,89.2,21.8z M87.8,21.5c-0.7-0.1-1.3-0.1-2-0.1c-0.8-0.4-1.6-0.9-2.3-1.6c0,0,0,0,0,0
			c0,0,0,0,0.1,0c0.9,0,1.9,0.1,2.7,0.4C86.7,20.7,87.2,21.1,87.8,21.5z M89,22.2c-0.8,0-1.5-0.2-2.2-0.4C87.5,21.8,88.3,22,89,22.2
			z M87.6,22.4c-0.7,0.2-1.3,0.4-1.9,0.7c-0.9,0-1.8-0.2-2.7-0.6c0,0,0,0-0.1,0c0,0,0,0,0,0c0.9-0.4,1.8-0.6,2.7-0.7
			C86.3,22.1,87,22.3,87.6,22.4z M89,22.6c-0.7,0.3-1.5,0.4-2.3,0.5C87.5,22.8,88.2,22.7,89,22.6z M87.8,23.3
			c-0.5,0.4-1,0.9-1.5,1.4c-0.9,0.3-1.8,0.5-2.8,0.5c0,0,0,0-0.1,0c0,0,0,0,0,0c0.7-0.7,1.4-1.2,2.2-1.7
			C86.5,23.5,87.2,23.5,87.8,23.3z M89.2,22.9C89.2,22.9,89.2,22.9,89.2,22.9C89.2,22.9,89.2,22.9,89.2,22.9c-0.6,0.5-1.2,1-1.9,1.3
			C87.8,23.7,88.5,23.3,89.2,22.9z M88.4,24.1c-0.4,0.6-0.6,1.2-0.9,1.8c-0.7,0.6-1.5,1.2-2.3,1.5c0,0,0,0,0,0c0,0,0,0,0-0.1
			c0.3-0.9,0.8-1.7,1.4-2.4C87.2,24.8,87.8,24.5,88.4,24.1z M89.4,23.2c-0.3,0.7-0.8,1.4-1.3,2C88.5,24.5,88.9,23.8,89.4,23.2z
			 M89.8,23.4c0,0.8-0.2,1.5-0.4,2.2C89.4,24.9,89.6,24.1,89.8,23.4z M90.2,23.3c0.3,0.8,0.5,1.5,0.5,2.3
			C90.4,24.9,90.3,24.1,90.2,23.3C90.2,23.3,90.2,23.3,90.2,23.3z M90.6,23.2C90.6,23.2,90.6,23.2,90.6,23.2c0.5,0.6,1,1.2,1.3,1.9
			C91.4,24.5,90.9,23.9,90.6,23.2C90.6,23.2,90.6,23.2,90.6,23.2z M91.7,24c0.6,0.4,1.2,0.6,1.8,0.9c0.6,0.7,1.1,1.5,1.5,2.3
			c0,0,0,0,0,0.1c0,0,0,0-0.1,0c-0.9-0.3-1.7-0.8-2.4-1.4C92.4,25.2,92.1,24.6,91.7,24z M90.8,22.9C90.9,22.9,90.9,22.9,90.8,22.9
			c0.8,0.4,1.4,0.8,2,1.3C92.1,23.9,91.5,23.4,90.8,22.9z M92.2,23.2c0.7,0.1,1.3,0.1,2,0.1c0.8,0.4,1.6,0.9,2.3,1.6c0,0,0,0,0,0
			c0,0,0,0-0.1,0c-0.9,0-1.9-0.1-2.7-0.4C93.3,24.1,92.8,23.6,92.2,23.2z M91.1,22.6C91,22.6,91,22.6,91.1,22.6
			C91,22.5,91.1,22.5,91.1,22.6c0.8,0,1.5,0.1,2.2,0.4C92.6,22.9,91.8,22.8,91.1,22.6z M92.4,22.3c0.7-0.2,1.3-0.4,1.9-0.7
			c0.9,0,1.8,0.2,2.7,0.6c0,0,0,0,0.1,0c0,0-0.1,0-0.1,0c-0.9,0.4-1.8,0.6-2.7,0.7C93.7,22.7,93.1,22.5,92.4,22.3z M91.1,22.2
			c0,0-0.1,0-0.1,0c0,0,0,0,0,0c0.8-0.3,1.6-0.5,2.4-0.5C92.6,21.9,91.9,22.1,91.1,22.2z M92.2,21.4c0.5-0.4,1-0.9,1.5-1.4
			c0.9-0.3,1.8-0.5,2.8-0.5c0,0,0,0,0.1,0c0,0,0,0-0.1,0.1c-0.6,0.7-1.4,1.2-2.2,1.6C93.5,21.2,92.8,21.3,92.2,21.4z M96.4,19.2
			c-0.8,0-1.6,0.1-2.3,0.4c0.5-0.6,0.8-1.3,1.1-2c0.1-0.1,0.1-0.3,0.1-0.4c0.9-0.3,1.9-0.5,2.9-0.5c-0.3,0.9-0.8,1.8-1.5,2.6
			C96.7,19.1,96.5,19.1,96.4,19.2z M92.2,18.6c-0.5,0.5-0.9,1-1.3,1.5c0.1-0.7,0.1-1.3,0.1-2c0.4-0.8,0.9-1.6,1.6-2.3
			c0,0,0,0,0.1-0.1c0,0,0,0,0,0.1C92.6,16.8,92.5,17.7,92.2,18.6z M90.6,18.1c-0.3,0.6-0.5,1.2-0.6,1.9c-0.2-0.7-0.4-1.3-0.7-1.9
			c0-0.9,0.2-1.8,0.6-2.7c0,0,0,0,0-0.1c0,0,0,0,0,0.1C90.3,16.2,90.5,17.1,90.6,18.1z M89.5,15.2c-0.3,0.7-0.5,1.5-0.5,2.2
			c-0.4-0.7-0.9-1.3-1.4-1.8c-0.1-0.1-0.2-0.2-0.3-0.3c0-1,0.3-2,0.6-2.9c0.7,0.7,1.3,1.4,1.8,2.3C89.6,15,89.5,15.1,89.5,15.2z
			 M84.6,17.7c0.3,0.7,0.7,1.4,1.2,2c-0.7-0.2-1.5-0.3-2.3-0.3c-0.1,0-0.3,0-0.4,0c-0.7-0.7-1.2-1.6-1.6-2.5c1,0,2,0.1,2.9,0.4
			C84.5,17.4,84.5,17.6,84.6,17.7z M83.2,20.1c0.6,0.5,1.2,1,1.9,1.4c-0.8,0.1-1.5,0.3-2.3,0.7c-0.1,0.1-0.2,0.1-0.4,0.2
			c-0.9-0.4-1.7-1-2.4-1.7c0.9-0.4,1.9-0.7,2.9-0.8C83,19.9,83.1,20,83.2,20.1z M82.5,22.7c0.1,0.1,0.3,0.1,0.4,0.2
			c0.7,0.3,1.5,0.5,2.2,0.5c-0.7,0.4-1.3,0.9-1.8,1.5c-0.1,0.1-0.2,0.2-0.3,0.3c-1,0-2-0.3-2.9-0.7C80.8,23.8,81.6,23.2,82.5,22.7z
			 M83.2,25.6c0.1,0,0.3,0,0.4,0c0.8,0,1.6-0.1,2.3-0.4c-0.5,0.6-0.8,1.3-1.1,2c-0.1,0.1-0.1,0.3-0.1,0.4c-0.9,0.3-1.9,0.5-2.9,0.5
			C82,27.2,82.5,26.4,83.2,25.6z M87.8,26.1c0.5-0.5,0.9-1,1.3-1.6c-0.1,0.7-0.1,1.3-0.1,2c-0.4,0.9-0.9,1.6-1.6,2.3c0,0,0,0,0,0
			c0,0,0,0,0-0.1C87.4,27.9,87.5,27,87.8,26.1z M89.4,26.6c0.3-0.6,0.5-1.3,0.6-1.9c0.2,0.7,0.4,1.3,0.7,1.9c0,0.9-0.2,1.8-0.6,2.7
			c0,0,0,0,0,0.1c0,0,0,0,0-0.1C89.7,28.5,89.5,27.6,89.4,26.6z M90.5,29.5c0.3-0.7,0.5-1.5,0.5-2.2c0.4,0.7,0.9,1.3,1.4,1.8
			c0.1,0.1,0.2,0.2,0.3,0.3c0,1-0.3,2-0.6,2.9c-0.7-0.7-1.3-1.4-1.8-2.3C90.4,29.8,90.5,29.6,90.5,29.5z M95.4,27
			c-0.3-0.7-0.7-1.4-1.2-2c0.7,0.2,1.5,0.3,2.3,0.3c0.1,0,0.3,0,0.4,0c0.7,0.7,1.2,1.6,1.6,2.5c-1,0-2-0.1-2.9-0.4
			C95.5,27.3,95.5,27.2,95.4,27z M96.8,24.6c-0.6-0.5-1.2-1-1.9-1.4c0.8-0.1,1.5-0.3,2.2-0.6c0.1-0.1,0.3-0.1,0.4-0.2
			c0.9,0.4,1.7,1,2.4,1.7c-0.9,0.4-1.9,0.7-2.9,0.8C97,24.8,96.9,24.7,96.8,24.6z M97.5,22c-0.1-0.1-0.2-0.1-0.4-0.2
			c-0.7-0.3-1.5-0.5-2.2-0.5c0.6-0.4,1.2-0.9,1.8-1.4c0.1-0.1,0.2-0.2,0.3-0.3c1,0,2,0.3,2.9,0.6C99.2,20.9,98.4,21.5,97.5,22z
			 M98.8,13.2c0.1,1-0.1,2-0.4,3c-1,0-2,0.1-2.9,0.4c0.3-0.9,0.4-1.9,0.3-2.9C96.7,13.4,97.7,13.2,98.8,13.2z M94.6,10.6
			c0.4,0.9,0.7,1.9,0.8,2.9c-0.9,0.4-1.8,0.9-2.5,1.5c-0.1-1-0.4-1.9-0.8-2.8C92.8,11.5,93.6,10.9,94.6,10.6z M89.7,9.7
			c0.8,0.7,1.4,1.5,1.8,2.3c-0.7,0.7-1.3,1.5-1.8,2.4c-0.5-0.9-1.1-1.6-1.8-2.3C88.4,11.3,89,10.4,89.7,9.7z M84.9,10.8
			c1,0.3,1.9,0.8,2.6,1.5c-0.4,0.9-0.6,1.8-0.7,2.8c-0.8-0.6-1.7-1.1-2.6-1.4C84.3,12.7,84.5,11.7,84.9,10.8z M80.9,13.6
			c1-0.1,2,0.1,3,0.4c0,1,0.1,2,0.4,2.9c-0.9-0.3-1.9-0.4-2.9-0.3C81,15.6,80.9,14.6,80.9,13.6z M78.2,17.8c0.9-0.4,1.9-0.7,2.9-0.8
			c0.4,0.9,0.9,1.8,1.5,2.5c-1,0.1-1.9,0.4-2.8,0.8C79.1,19.6,78.6,18.7,78.2,17.8z M77.3,22.6c0.7-0.8,1.5-1.4,2.3-1.8
			c0.7,0.7,1.5,1.3,2.4,1.8c-0.9,0.5-1.6,1.1-2.3,1.8C78.9,23.9,78.1,23.4,77.3,22.6z M78.4,27.5c0.3-1,0.8-1.9,1.5-2.6
			c0.9,0.4,1.9,0.6,2.8,0.7c-0.6,0.8-1.1,1.7-1.4,2.6C80.3,28.1,79.3,27.9,78.4,27.5z M81.2,31.5c-0.1-1,0.1-2,0.4-3
			c1,0,2-0.1,2.9-0.4c-0.3,1-0.4,1.9-0.3,2.9C83.3,31.4,82.2,31.5,81.2,31.5z M85.4,34.2c-0.4-0.9-0.7-1.9-0.8-2.9
			c0.9-0.4,1.8-0.9,2.5-1.5c0.1,1,0.4,1.9,0.8,2.8C87.2,33.3,86.4,33.8,85.4,34.2z M90.3,35c-0.8-0.7-1.4-1.5-1.8-2.3
			c0.7-0.7,1.3-1.5,1.8-2.4c0.5,0.9,1.1,1.6,1.8,2.3C91.6,33.5,91,34.3,90.3,35z M95.1,34c-1-0.3-1.9-0.8-2.6-1.5
			c0.4-0.9,0.6-1.8,0.7-2.8c0.8,0.6,1.7,1.1,2.6,1.4C95.7,32,95.5,33,95.1,34z M99.1,31.1c-1,0.1-2-0.1-3-0.4c0-1-0.1-2-0.4-2.9
			c0.9,0.3,1.9,0.4,2.9,0.3C99,29.1,99.1,30.1,99.1,31.1z M101.8,27c-0.9,0.4-1.9,0.7-2.9,0.8c-0.4-0.9-0.9-1.8-1.5-2.5
			c1-0.1,1.9-0.4,2.8-0.8C100.9,25.2,101.4,26,101.8,27z M100.3,23.9c-0.7-0.7-1.5-1.3-2.4-1.8c0.9-0.5,1.6-1.1,2.3-1.8
			c0.9,0.4,1.7,1,2.5,1.8C102,22.9,101.2,23.5,100.3,23.9z"/>
		<path fill="#DBB65B" d="M150.9,42c-0.7-0.8-1.6-1.5-2.6-1.9c0.7-0.8,1.2-1.8,1.5-2.8l0.1-0.2l-0.2-0.1c-1-0.4-2-0.7-3.1-0.8
			c0.3-1,0.4-2.1,0.3-3.2l0-0.2l-0.2,0c-1.1,0-2.2,0.1-3.2,0.5c-0.1-1.1-0.4-2.1-0.9-3.1l-0.1-0.2l-0.2,0.1c-1,0.4-1.9,0.9-2.7,1.6
			c-0.5-0.9-1.2-1.8-2-2.5l-0.1-0.1l-0.1,0.1c-0.8,0.7-1.4,1.6-1.9,2.6c-0.8-0.7-1.8-1.2-2.8-1.5l-0.2-0.1l-0.1,0.2
			c-0.4,1-0.7,2-0.8,3.1c-1-0.3-2.1-0.4-3.2-0.3l-0.2,0l0,0.2c0,1.1,0.1,2.2,0.5,3.2c-1.1,0.1-2.1,0.4-3.1,0.9l-0.2,0.1l0.1,0.2
			c0.4,1,0.9,1.9,1.6,2.7c-0.9,0.5-1.8,1.2-2.5,2l-0.1,0.1l0.1,0.1c0.7,0.8,1.6,1.4,2.6,1.9c-0.7,0.8-1.2,1.8-1.5,2.8l-0.1,0.2
			l0.2,0.1c0.2,0.1,0.3,0.1,0.5,0.2c0.9,0.3,1.7,0.5,2.6,0.6c-0.3,1-0.4,2.1-0.3,3.2l0,0.2l0.2,0c0.2,0,0.3,0,0.5,0
			c0.9,0,1.8-0.2,2.7-0.5c0.1,1.1,0.4,2.1,0.9,3.1l0.1,0.2l0.2-0.1c1-0.4,1.9-0.9,2.7-1.6c0.5,0.9,1.2,1.8,2,2.5l0.1,0.1l0.1-0.1
			c0.8-0.7,1.4-1.6,1.9-2.6c0.7,0.6,1.5,1,2.4,1.4c0.2,0.1,0.3,0.1,0.5,0.2l0.2,0.1l0.1-0.2c0.4-1,0.7-2,0.8-3.1
			c0.9,0.3,1.8,0.4,2.7,0.4c0.2,0,0.3,0,0.5,0l0.2,0l0-0.2c0-1.1-0.1-2.2-0.5-3.2c1.1-0.1,2.1-0.4,3.1-0.9l0.2-0.1l-0.1-0.2
			c-0.4-1-0.9-1.9-1.6-2.7c0.9-0.5,1.8-1.2,2.5-2l0.1-0.1L150.9,42z M149.4,37.2c-0.3,1-0.8,1.8-1.5,2.6c-0.9-0.4-1.8-0.6-2.8-0.7
			c0.6-0.8,1.1-1.7,1.4-2.6C147.5,36.6,148.5,36.8,149.4,37.2z M143.6,50.6c-0.9-0.3-1.8-0.8-2.6-1.5c0-0.1,0-0.3,0-0.4
			c0-0.8-0.1-1.6-0.4-2.3c0.6,0.5,1.3,0.8,2,1.1c0.1,0,0.3,0.1,0.4,0.1C143.5,48.6,143.6,49.6,143.6,50.6z M140.7,48.7
			C140.7,48.8,140.7,48.8,140.7,48.7C140.7,48.8,140.6,48.8,140.7,48.7c-0.7-0.6-1.3-1.4-1.7-2.2c0-0.7,0-1.4-0.2-2
			c0.4,0.5,0.9,1,1.4,1.5C140.5,46.9,140.6,47.8,140.7,48.7z M136.1,52.3c-0.4-0.9-0.7-1.9-0.8-2.9c0.1-0.1,0.2-0.2,0.3-0.3
			c0.6-0.6,1-1.2,1.4-1.9c0.1,0.8,0.3,1.5,0.7,2.2c0.1,0.1,0.1,0.2,0.2,0.4C137.4,50.8,136.8,51.6,136.1,52.3z M134.9,48.9
			c0,0.1,0,0.3,0,0.4c-0.7,0.7-1.6,1.2-2.5,1.6c0-1,0.1-2,0.4-2.9c0.1,0,0.2-0.1,0.4-0.1c0.7-0.3,1.4-0.7,2-1.2
			C135,47.3,134.9,48.1,134.9,48.9z M132,34.1c0.9,0.3,1.8,0.8,2.6,1.5c0,0.1,0,0.3,0,0.4c0,0.8,0.1,1.6,0.4,2.3
			c-0.6-0.5-1.3-0.8-2-1.1c-0.1,0-0.3-0.1-0.4-0.1C132.2,36,132,35,132,34.1z M135,35.9C135,35.9,135,35.9,135,35.9
			C135,35.9,135,35.9,135,35.9c0.7,0.6,1.3,1.4,1.7,2.2c0,0.7,0,1.4,0.2,2c-0.4-0.5-0.9-1-1.4-1.5C135.2,37.8,135,36.9,135,35.9z
			 M139.6,32.4c0.4,0.9,0.7,1.9,0.8,2.9c-0.1,0.1-0.2,0.2-0.3,0.3c-0.5,0.6-1,1.2-1.4,1.9c-0.1-0.8-0.3-1.5-0.6-2.2
			c-0.1-0.1-0.1-0.2-0.2-0.4C138.3,33.9,138.9,33.1,139.6,32.4z M140.8,35.8c0-0.1,0-0.3,0-0.4c0.7-0.7,1.6-1.2,2.5-1.6
			c0,1-0.1,2-0.4,2.9c-0.1,0.1-0.3,0.1-0.4,0.2c-0.7,0.3-1.4,0.7-1.9,1.2C140.7,37.4,140.8,36.6,140.8,35.8z M138,41.3
			c0-0.8,0.2-1.5,0.4-2.2C138.4,39.8,138.3,40.5,138,41.3C138,41.3,138,41.3,138,41.3C138,41.3,138,41.3,138,41.3z M138.6,41.8
			C138.6,41.8,138.6,41.8,138.6,41.8c0.6-0.5,1.2-1,1.9-1.3C140,41,139.4,41.4,138.6,41.8C138.6,41.8,138.6,41.8,138.6,41.8z
			 M139.5,40.6c0.4-0.6,0.6-1.2,0.9-1.9c0.7-0.6,1.4-1.1,2.3-1.5c0,0,0.1,0,0.1,0c0,0,0,0,0,0.1c-0.3,0.9-0.8,1.7-1.4,2.4
			C140.6,39.9,140,40.3,139.5,40.6z M138.4,41.5C138.4,41.5,138.4,41.5,138.4,41.5c0,0,0-0.1,0-0.1c0.3-0.7,0.8-1.4,1.3-1.9
			C139.3,40.2,138.9,40.9,138.4,41.5z M137.6,41.4c-0.3-0.8-0.4-1.5-0.5-2.3C137.4,39.7,137.5,40.5,137.6,41.4
			C137.6,41.3,137.6,41.3,137.6,41.4z M137.3,41.5C137.3,41.5,137.3,41.5,137.3,41.5c-0.5-0.6-1-1.2-1.3-1.9
			C136.5,40.2,136.9,40.8,137.3,41.5C137.3,41.5,137.3,41.5,137.3,41.5z M136.1,40.7c-0.6-0.4-1.2-0.6-1.8-0.9
			c-0.6-0.7-1.1-1.5-1.5-2.3c0,0,0,0,0-0.1c0,0,0,0,0.1,0c0.9,0.3,1.7,0.8,2.4,1.4C135.4,39.5,135.7,40.1,136.1,40.7z M137,41.8
			C137,41.8,137,41.8,137,41.8c-0.7-0.3-1.4-0.8-2-1.3C135.7,40.8,136.4,41.3,137,41.8z M135.6,41.5c-0.7-0.1-1.3-0.1-2-0.1
			c-0.9-0.4-1.6-0.9-2.3-1.6c0,0,0,0,0,0c0,0,0,0,0.1,0c0.9,0,1.9,0.1,2.7,0.4C134.5,40.7,135.1,41.1,135.6,41.5z M136.8,42.2
			c-0.8,0-1.5-0.2-2.2-0.4C135.3,41.8,136.1,41.9,136.8,42.2z M135.5,42.4c-0.7,0.2-1.3,0.4-1.9,0.7c-0.9,0-1.8-0.2-2.7-0.6
			c0,0,0,0-0.1,0c0,0,0,0,0,0c0.9-0.4,1.8-0.6,2.7-0.7C134.2,42.1,134.8,42.3,135.5,42.4z M136.8,42.6c-0.7,0.3-1.5,0.4-2.3,0.5
			C135.3,42.8,136.1,42.6,136.8,42.6z M135.7,43.3c-0.5,0.4-1,0.8-1.5,1.4c-0.9,0.3-1.8,0.5-2.8,0.5c0,0,0,0-0.1,0c0,0,0,0,0,0
			c0.7-0.7,1.4-1.2,2.2-1.7C134.3,43.5,135,43.4,135.7,43.3z M137,42.9C137,42.9,137,42.9,137,42.9C137,42.9,137,42.9,137,42.9
			c-0.6,0.5-1.2,1-1.9,1.3C135.7,43.7,136.3,43.3,137,42.9z M136.2,44.1c-0.4,0.6-0.6,1.2-0.9,1.8c-0.7,0.6-1.5,1.2-2.3,1.5
			c0,0,0,0,0,0c0,0,0,0,0-0.1c0.3-0.9,0.8-1.7,1.4-2.4C135,44.7,135.6,44.4,136.2,44.1z M137.3,43.2c-0.3,0.7-0.8,1.4-1.3,2
			C136.4,44.5,136.8,43.8,137.3,43.2z M137.6,43.4c0,0.8-0.2,1.5-0.4,2.2C137.3,44.8,137.4,44.1,137.6,43.4z M138.1,43.3
			c0.3,0.8,0.5,1.5,0.5,2.3C138.3,44.9,138.1,44.1,138.1,43.3C138,43.3,138,43.3,138.1,43.3z M138.4,43.1
			C138.4,43.1,138.4,43.2,138.4,43.1c0.5,0.6,1,1.2,1.3,1.9C139.2,44.5,138.8,43.9,138.4,43.1C138.4,43.2,138.4,43.2,138.4,43.1z
			 M139.6,44c0.6,0.4,1.2,0.6,1.8,0.9c0.6,0.7,1.1,1.5,1.5,2.3c0,0,0,0,0,0.1c0,0,0,0-0.1,0c-0.9-0.3-1.7-0.8-2.4-1.4
			C140.2,45.1,139.9,44.5,139.6,44z M138.7,42.9C138.7,42.9,138.7,42.9,138.7,42.9c0.8,0.4,1.4,0.8,2,1.3
			C140,43.8,139.3,43.4,138.7,42.9z M140.1,43.2c0.7,0.1,1.3,0.1,2,0.1c0.8,0.4,1.6,0.9,2.3,1.6c0,0,0,0,0,0c0,0,0,0-0.1,0
			c-0.9,0-1.9-0.1-2.7-0.4C141.1,44,140.6,43.6,140.1,43.2z M138.9,42.6C138.9,42.5,138.9,42.5,138.9,42.6
			C138.9,42.5,138.9,42.5,138.9,42.6c0.8,0,1.5,0.1,2.2,0.4C140.4,42.9,139.6,42.8,138.9,42.6z M140.2,42.3c0.7-0.2,1.3-0.4,1.9-0.7
			c0.9,0,1.8,0.2,2.7,0.6c0,0,0,0,0.1,0c0,0-0.1,0-0.1,0c-0.9,0.4-1.8,0.6-2.7,0.7C141.5,42.6,140.9,42.4,140.2,42.3z M138.9,42.1
			c0,0-0.1,0-0.1,0c0,0,0,0,0,0c0.8-0.3,1.6-0.5,2.4-0.5C140.4,41.9,139.7,42.1,138.9,42.1z M140,41.4c0.5-0.4,1-0.8,1.5-1.4
			c0.9-0.3,1.8-0.5,2.8-0.5c0,0,0,0,0.1,0c0,0,0,0-0.1,0.1c-0.6,0.7-1.4,1.2-2.2,1.6C141.4,41.2,140.7,41.2,140,41.4z M144.2,39.1
			c-0.8,0-1.6,0.1-2.3,0.4c0.5-0.6,0.8-1.3,1.1-2c0.1-0.1,0.1-0.3,0.1-0.4c0.9-0.3,1.9-0.5,2.9-0.5c-0.3,0.9-0.8,1.8-1.5,2.6
			C144.5,39.1,144.4,39.1,144.2,39.1z M140,38.6c-0.5,0.5-0.9,1-1.3,1.5c0.1-0.7,0.1-1.3,0.1-2c0.4-0.8,0.9-1.6,1.6-2.3
			c0,0,0,0,0.1-0.1c0,0,0,0,0,0.1C140.4,36.8,140.3,37.7,140,38.6z M138.4,38c-0.3,0.6-0.5,1.2-0.6,1.9c-0.2-0.7-0.4-1.3-0.7-1.9
			c0-0.9,0.2-1.8,0.6-2.7c0,0,0,0,0-0.1c0,0,0,0,0,0.1C138.1,36.2,138.3,37.1,138.4,38z M137.3,35.2c-0.3,0.7-0.5,1.5-0.5,2.2
			c-0.4-0.7-0.9-1.3-1.4-1.8c-0.1-0.1-0.2-0.2-0.3-0.3c0-1,0.3-2,0.6-2.9c0.7,0.7,1.3,1.4,1.8,2.3C137.4,35,137.3,35.1,137.3,35.2z
			 M132.4,37.7c0.3,0.7,0.7,1.4,1.2,2c-0.7-0.2-1.5-0.3-2.3-0.3c-0.1,0-0.3,0-0.4,0c-0.7-0.7-1.2-1.6-1.6-2.5c1,0,2,0.1,2.9,0.4
			C132.3,37.4,132.4,37.5,132.4,37.7z M131,40.1c0.6,0.5,1.2,1,1.9,1.4c-0.8,0.1-1.5,0.3-2.3,0.7c-0.1,0.1-0.2,0.1-0.4,0.2
			c-0.9-0.4-1.7-1-2.4-1.7c0.9-0.4,1.9-0.7,2.9-0.8C130.8,39.9,130.9,40,131,40.1z M130.3,42.7c0.1,0.1,0.3,0.1,0.4,0.2
			c0.7,0.3,1.5,0.5,2.2,0.5c-0.7,0.4-1.3,0.9-1.8,1.5c-0.1,0.1-0.2,0.2-0.3,0.3c-1,0-2-0.3-2.9-0.7
			C128.6,43.8,129.4,43.2,130.3,42.7z M131,45.6c0.1,0,0.3,0,0.4,0c0.8,0,1.6-0.1,2.3-0.4c-0.5,0.6-0.8,1.3-1.1,2
			c-0.1,0.1-0.1,0.3-0.1,0.4c-0.9,0.3-1.9,0.5-2.9,0.5C129.9,47.2,130.4,46.3,131,45.6z M135.7,46.1c0.5-0.5,0.9-1,1.3-1.6
			c-0.1,0.7-0.1,1.3-0.1,2c-0.4,0.9-0.9,1.6-1.6,2.3c0,0,0,0,0,0c0,0,0,0,0-0.1C135.2,47.9,135.4,47,135.7,46.1z M137.3,46.6
			c0.3-0.6,0.5-1.3,0.6-1.9c0.2,0.7,0.4,1.3,0.7,1.9c0,0.9-0.2,1.8-0.6,2.7c0,0,0,0,0,0.1c0,0,0,0,0-0.1
			C137.6,48.5,137.4,47.5,137.3,46.6z M138.4,49.5c0.3-0.7,0.5-1.5,0.5-2.2c0.4,0.7,0.9,1.3,1.4,1.8c0.1,0.1,0.2,0.2,0.3,0.3
			c0,1-0.3,2-0.6,2.9c-0.7-0.7-1.3-1.4-1.8-2.3C138.3,49.7,138.3,49.6,138.4,49.5z M143.3,47c-0.3-0.7-0.7-1.4-1.2-2
			c0.7,0.2,1.5,0.3,2.3,0.3c0.1,0,0.3,0,0.4,0c0.7,0.7,1.2,1.6,1.6,2.5c-1,0-2-0.1-2.9-0.4C143.4,47.3,143.3,47.1,143.3,47z
			 M144.6,44.6c-0.6-0.5-1.2-1-1.9-1.4c0.8-0.1,1.5-0.3,2.2-0.6c0.1-0.1,0.3-0.1,0.4-0.2c0.9,0.4,1.7,1,2.4,1.7
			c-0.9,0.4-1.9,0.7-2.9,0.8C144.8,44.8,144.7,44.7,144.6,44.6z M145.4,42c-0.1-0.1-0.2-0.1-0.4-0.2c-0.7-0.3-1.5-0.5-2.2-0.5
			c0.6-0.4,1.2-0.9,1.8-1.4c0.1-0.1,0.2-0.2,0.3-0.3c1,0,2,0.3,2.9,0.6C147,40.9,146.2,41.5,145.4,42z M146.6,33.2
			c0.1,1-0.1,2-0.4,3c-1,0-2,0.1-2.9,0.4c0.3-0.9,0.4-1.9,0.3-2.9C144.6,33.4,145.6,33.2,146.6,33.2z M142.4,30.5
			c0.4,0.9,0.7,1.9,0.8,2.9c-0.9,0.4-1.8,0.9-2.5,1.5c-0.1-1-0.4-1.9-0.8-2.8C140.6,31.5,141.5,30.9,142.4,30.5z M137.6,29.7
			c0.8,0.7,1.4,1.5,1.8,2.3c-0.7,0.7-1.3,1.5-1.8,2.4c-0.5-0.9-1.1-1.6-1.8-2.3C136.3,31.2,136.8,30.4,137.6,29.7z M132.7,30.8
			c1,0.3,1.9,0.8,2.6,1.5c-0.4,0.9-0.6,1.8-0.7,2.8c-0.8-0.6-1.7-1.1-2.6-1.4C132.1,32.7,132.3,31.7,132.7,30.8z M128.7,33.6
			c1-0.1,2,0.1,3,0.4c0,1,0.1,2,0.4,2.9c-0.9-0.3-1.9-0.4-2.9-0.3C128.9,35.6,128.7,34.6,128.7,33.6z M126,37.8
			c0.9-0.4,1.9-0.7,2.9-0.8c0.4,0.9,0.9,1.8,1.5,2.5c-1,0.1-1.9,0.4-2.8,0.8C126.9,39.6,126.4,38.7,126,37.8z M125.2,42.6
			c0.7-0.8,1.5-1.4,2.3-1.8c0.7,0.7,1.5,1.3,2.4,1.8c-0.9,0.5-1.6,1.1-2.3,1.8C126.7,43.9,125.9,43.3,125.2,42.6z M126.2,47.5
			c0.3-1,0.8-1.9,1.5-2.6c0.9,0.4,1.9,0.6,2.8,0.7c-0.6,0.8-1.1,1.7-1.4,2.6C128.1,48.1,127.2,47.9,126.2,47.5z M129.1,51.5
			c-0.1-1,0.1-2,0.4-3c1,0,2-0.1,2.9-0.4c-0.3,1-0.4,1.9-0.3,2.9C131.1,51.3,130.1,51.5,129.1,51.5z M133.2,54.1
			c-0.4-0.9-0.7-1.9-0.8-2.9c0.9-0.4,1.8-0.9,2.5-1.5c0.1,1,0.4,1.9,0.8,2.8C135,53.2,134.2,53.8,133.2,54.1z M138.1,55
			c-0.8-0.7-1.4-1.5-1.8-2.3c0.7-0.7,1.3-1.5,1.8-2.4c0.5,0.9,1.1,1.6,1.8,2.3C139.4,53.5,138.8,54.3,138.1,55z M142.9,53.9
			c-1-0.3-1.9-0.8-2.6-1.5c0.4-0.9,0.6-1.8,0.7-2.8c0.8,0.6,1.7,1.1,2.6,1.4C143.6,52,143.3,53,142.9,53.9z M147,51.1
			c-1,0.1-2-0.1-3-0.4c0-1-0.1-2-0.4-2.9c0.9,0.3,1.9,0.4,2.9,0.3C146.8,49.1,147,50.1,147,51.1z M149.6,46.9
			c-0.9,0.4-1.9,0.7-2.9,0.8c-0.4-0.9-0.9-1.8-1.5-2.5c1-0.1,1.9-0.4,2.8-0.8C148.7,45.1,149.3,46,149.6,46.9z M148.1,43.9
			c-0.7-0.7-1.5-1.3-2.4-1.8c0.9-0.5,1.6-1.1,2.3-1.8c0.9,0.4,1.7,1,2.5,1.8C149.8,42.8,149,43.5,148.1,43.9z"/>
		<path fill="#DBB65B" d="M170.7,89.6c-0.7-0.8-1.6-1.5-2.6-1.9c0.7-0.8,1.2-1.8,1.5-2.8l0.1-0.2l-0.2-0.1c-1-0.4-2-0.7-3.1-0.8
			c0.3-1,0.4-2.1,0.3-3.2l0-0.2l-0.2,0c-1.1,0-2.2,0.1-3.2,0.5c-0.1-1.1-0.4-2.1-0.9-3.1l-0.1-0.2l-0.2,0.1c-1,0.4-1.9,0.9-2.7,1.6
			c-0.5-0.9-1.2-1.8-2-2.5l-0.1-0.1l-0.1,0.1c-0.8,0.7-1.4,1.6-1.9,2.6c-0.8-0.7-1.8-1.2-2.8-1.5l-0.2-0.1l-0.1,0.2
			c-0.4,1-0.7,2-0.8,3.1c-1-0.3-2.1-0.4-3.2-0.3l-0.2,0l0,0.2c0,1.1,0.1,2.2,0.5,3.2c-1.1,0.1-2.1,0.4-3.1,0.9l-0.2,0.1l0.1,0.2
			c0.4,1,0.9,1.9,1.6,2.7c-0.9,0.5-1.8,1.2-2.5,2l-0.1,0.1l0.1,0.1c0.7,0.8,1.6,1.4,2.6,1.9c-0.7,0.8-1.2,1.8-1.5,2.8l-0.1,0.2
			l0.2,0.1c0.2,0.1,0.3,0.1,0.5,0.2c0.9,0.3,1.7,0.5,2.6,0.6c-0.3,1-0.4,2.1-0.3,3.2l0,0.2l0.2,0c0.2,0,0.3,0,0.5,0
			c0.9,0,1.8-0.2,2.7-0.5c0.1,1.1,0.4,2.1,0.9,3.1l0.1,0.2l0.2-0.1c1-0.4,1.9-0.9,2.7-1.6c0.5,0.9,1.2,1.8,2,2.5l0.1,0.1l0.1-0.1
			c0.8-0.7,1.4-1.6,1.9-2.6c0.7,0.6,1.5,1,2.4,1.4c0.2,0.1,0.3,0.1,0.5,0.2l0.2,0.1l0.1-0.2c0.4-1,0.7-2,0.8-3.1
			c0.9,0.3,1.8,0.4,2.7,0.4c0.2,0,0.3,0,0.5,0l0.2,0l0-0.2c0-1.1-0.1-2.2-0.5-3.2c1.1-0.1,2.1-0.4,3.1-0.9l0.2-0.1l-0.1-0.2
			c-0.4-1-0.9-1.9-1.6-2.7c0.9-0.5,1.8-1.2,2.5-2l0.1-0.1L170.7,89.6z M169.2,84.9c-0.3,1-0.8,1.8-1.5,2.6c-0.9-0.4-1.8-0.6-2.8-0.7
			c0.6-0.8,1.1-1.7,1.4-2.6C167.3,84.3,168.2,84.5,169.2,84.9z M163.4,98.3c-0.9-0.3-1.8-0.8-2.6-1.5c0-0.1,0-0.3,0-0.4
			c0-0.8-0.1-1.6-0.4-2.3c0.6,0.5,1.3,0.8,2,1.1c0.1,0.1,0.3,0.1,0.4,0.1C163.2,96.3,163.4,97.3,163.4,98.3z M160.4,96.4
			C160.4,96.4,160.4,96.4,160.4,96.4C160.4,96.5,160.4,96.4,160.4,96.4c-0.7-0.6-1.3-1.4-1.7-2.2c0-0.7,0-1.4-0.2-2
			c0.4,0.5,0.9,1,1.4,1.5C160.2,94.5,160.4,95.5,160.4,96.4z M155.8,100c-0.4-0.9-0.7-1.9-0.8-2.9c0.1-0.1,0.2-0.2,0.3-0.3
			c0.6-0.6,1-1.2,1.4-1.9c0.1,0.8,0.3,1.5,0.7,2.2c0.1,0.1,0.1,0.2,0.2,0.4C157.1,98.4,156.5,99.3,155.8,100z M154.6,96.5
			c0,0.1,0,0.3,0,0.4c-0.7,0.7-1.6,1.2-2.5,1.6c0-1,0.1-2,0.4-2.9c0.1,0,0.2-0.1,0.4-0.1c0.7-0.3,1.4-0.7,2-1.2
			C154.7,95,154.6,95.7,154.6,96.5z M151.8,81.7c0.9,0.3,1.8,0.8,2.6,1.5c0,0.1,0,0.3,0,0.4c0,0.8,0.1,1.6,0.4,2.3
			c-0.6-0.5-1.3-0.8-2-1.1c-0.1-0.1-0.3-0.1-0.4-0.1C152,83.7,151.8,82.7,151.8,81.7z M154.8,83.6C154.8,83.6,154.8,83.6,154.8,83.6
			C154.8,83.5,154.8,83.6,154.8,83.6c0.7,0.6,1.3,1.4,1.7,2.2c0,0.7,0,1.4,0.2,2c-0.4-0.5-0.9-1-1.4-1.5
			C155,85.5,154.8,84.5,154.8,83.6z M159.4,80c0.4,0.9,0.7,1.9,0.8,2.9c-0.1,0.1-0.2,0.2-0.3,0.3c-0.5,0.6-1,1.2-1.4,1.9
			c-0.1-0.8-0.3-1.5-0.6-2.2c-0.1-0.1-0.1-0.2-0.2-0.4C158.1,81.6,158.7,80.7,159.4,80z M160.6,83.5c0-0.1,0-0.3,0-0.4
			c0.7-0.7,1.6-1.2,2.5-1.6c0,1-0.1,2-0.4,2.9c-0.1,0.1-0.3,0.1-0.4,0.2c-0.7,0.3-1.4,0.7-1.9,1.2C160.5,85,160.6,84.3,160.6,83.5z
			 M157.8,88.9c0-0.8,0.2-1.5,0.4-2.2C158.2,87.4,158,88.2,157.8,88.9C157.8,88.9,157.8,89,157.8,88.9
			C157.8,89,157.8,88.9,157.8,88.9z M158.4,89.4C158.4,89.4,158.4,89.4,158.4,89.4c0.6-0.5,1.2-1,1.9-1.3
			C159.8,88.6,159.1,89.1,158.4,89.4C158.4,89.4,158.4,89.4,158.4,89.4z M159.3,88.3c0.4-0.6,0.6-1.2,0.9-1.9
			c0.7-0.6,1.4-1.1,2.3-1.5c0,0,0.1,0,0.1,0c0,0,0,0,0,0.1c-0.3,0.9-0.8,1.7-1.4,2.4C160.4,87.6,159.8,87.9,159.3,88.3z M158.1,89.2
			C158.1,89.2,158.1,89.2,158.1,89.2c0,0,0-0.1,0-0.1c0.3-0.7,0.8-1.4,1.3-1.9C159.1,87.9,158.7,88.5,158.1,89.2z M157.4,89
			c-0.3-0.8-0.4-1.5-0.5-2.3C157.1,87.4,157.3,88.2,157.4,89C157.4,89,157.4,89,157.4,89z M157,89.2C157,89.2,157,89.2,157,89.2
			c-0.5-0.6-1-1.2-1.3-1.9C156.2,87.8,156.7,88.5,157,89.2C157,89.2,157,89.2,157,89.2z M155.9,88.4c-0.6-0.4-1.2-0.6-1.8-0.9
			c-0.6-0.7-1.1-1.5-1.5-2.3c0,0,0,0,0-0.1c0,0,0,0,0.1,0c0.9,0.3,1.7,0.8,2.4,1.4C155.2,87.2,155.5,87.8,155.9,88.4z M156.8,89.5
			C156.8,89.5,156.8,89.5,156.8,89.5c-0.7-0.3-1.4-0.8-2-1.3C155.5,88.5,156.2,88.9,156.8,89.5z M155.4,89.2c-0.7-0.1-1.3-0.1-2-0.1
			c-0.9-0.4-1.6-0.9-2.3-1.6c0,0,0,0,0,0c0,0,0,0,0.1,0c0.9,0,1.9,0.1,2.7,0.4C154.3,88.3,154.8,88.8,155.4,89.2z M156.6,89.8
			c-0.8,0-1.5-0.2-2.2-0.4C155.1,89.5,155.9,89.6,156.6,89.8z M155.2,90.1c-0.7,0.2-1.3,0.4-1.9,0.7c-0.9,0-1.8-0.2-2.7-0.6
			c0,0,0,0-0.1,0c0,0,0,0,0,0c0.9-0.4,1.8-0.6,2.7-0.7C153.9,89.7,154.6,89.9,155.2,90.1z M156.6,90.2c-0.7,0.3-1.5,0.4-2.3,0.5
			C155.1,90.5,155.8,90.3,156.6,90.2z M155.4,91c-0.5,0.4-1,0.8-1.5,1.4c-0.9,0.3-1.8,0.5-2.8,0.5c0,0,0,0-0.1,0c0,0,0,0,0,0
			c0.7-0.7,1.4-1.2,2.2-1.7C154.1,91.2,154.8,91.1,155.4,91z M156.8,90.6C156.8,90.6,156.8,90.6,156.8,90.6
			C156.8,90.6,156.8,90.6,156.8,90.6c-0.6,0.5-1.2,1-1.9,1.3C155.4,91.4,156.1,90.9,156.8,90.6z M156,91.7c-0.4,0.6-0.6,1.2-0.9,1.8
			c-0.7,0.6-1.5,1.2-2.3,1.5c0,0,0,0,0,0c0,0,0,0,0-0.1c0.3-0.9,0.8-1.7,1.4-2.4C154.8,92.4,155.4,92.1,156,91.7z M157.1,90.9
			c-0.3,0.7-0.8,1.4-1.3,2C156.1,92.1,156.5,91.5,157.1,90.9z M157.4,91c0,0.8-0.2,1.5-0.4,2.2C157.1,92.5,157.2,91.7,157.4,91z
			 M157.8,91c0.3,0.8,0.5,1.5,0.5,2.3C158.1,92.6,157.9,91.8,157.8,91C157.8,91,157.8,91,157.8,91z M158.2,90.8
			C158.2,90.8,158.2,90.8,158.2,90.8c0.5,0.6,1,1.2,1.3,1.9C159,92.2,158.5,91.5,158.2,90.8C158.2,90.8,158.2,90.8,158.2,90.8z
			 M159.3,91.6c0.6,0.4,1.2,0.6,1.8,0.9c0.6,0.7,1.1,1.5,1.5,2.3c0,0,0,0,0,0.1c0,0,0,0-0.1,0c-0.9-0.3-1.7-0.8-2.4-1.4
			C160,92.8,159.7,92.2,159.3,91.6z M158.5,90.5C158.5,90.6,158.5,90.6,158.5,90.5c0.8,0.4,1.4,0.8,2,1.3
			C159.7,91.5,159.1,91.1,158.5,90.5z M159.8,90.9c0.7,0.1,1.3,0.1,2,0.1c0.8,0.4,1.6,0.9,2.3,1.6c0,0,0,0,0,0c0,0,0,0-0.1,0
			c-0.9,0-1.9-0.1-2.7-0.4C160.9,91.7,160.4,91.2,159.8,90.9z M158.7,90.2C158.6,90.2,158.6,90.2,158.7,90.2
			C158.6,90.2,158.7,90.2,158.7,90.2c0.8,0,1.5,0.1,2.2,0.4C160.2,90.6,159.4,90.4,158.7,90.2z M160,90c0.7-0.2,1.3-0.4,1.9-0.7
			c0.9,0,1.8,0.2,2.7,0.6c0,0,0,0,0.1,0c0,0-0.1,0-0.1,0c-0.9,0.4-1.8,0.6-2.7,0.7C161.3,90.3,160.7,90.1,160,90z M158.7,89.8
			c0,0-0.1,0-0.1,0c0,0,0,0,0,0c0.8-0.3,1.6-0.5,2.4-0.5C160.2,89.5,159.5,89.7,158.7,89.8z M159.8,89c0.5-0.4,1-0.8,1.5-1.4
			c0.9-0.3,1.8-0.5,2.8-0.5c0,0,0,0,0.1,0c0,0,0,0-0.1,0.1c-0.6,0.7-1.4,1.2-2.2,1.6C161.1,88.8,160.5,88.9,159.8,89z M164,86.8
			c-0.8,0-1.6,0.1-2.3,0.4c0.5-0.6,0.8-1.3,1.1-2c0.1-0.1,0.1-0.3,0.1-0.4c0.9-0.3,1.9-0.5,2.9-0.5c-0.3,0.9-0.8,1.8-1.5,2.6
			C164.3,86.8,164.1,86.8,164,86.8z M159.8,86.2c-0.5,0.5-0.9,1-1.3,1.5c0.1-0.7,0.1-1.3,0.1-2c0.4-0.8,0.9-1.6,1.6-2.3
			c0,0,0,0,0.1-0.1c0,0,0,0,0,0.1C160.2,84.4,160.1,85.3,159.8,86.2z M158.2,85.7c-0.3,0.6-0.5,1.2-0.6,1.9
			c-0.2-0.7-0.4-1.3-0.7-1.9c0-0.9,0.2-1.8,0.6-2.7c0,0,0,0,0-0.1c0,0,0,0,0,0.1C157.9,83.9,158.1,84.8,158.2,85.7z M157.1,82.9
			c-0.3,0.7-0.5,1.5-0.5,2.2c-0.4-0.7-0.9-1.3-1.4-1.8c-0.1-0.1-0.2-0.2-0.3-0.3c0-1,0.3-2,0.6-2.9c0.7,0.7,1.3,1.4,1.8,2.3
			C157.2,82.6,157.1,82.7,157.1,82.9z M152.2,85.3c0.3,0.7,0.7,1.4,1.2,2c-0.7-0.2-1.5-0.3-2.3-0.3c-0.1,0-0.3,0-0.4,0
			c-0.7-0.7-1.2-1.6-1.6-2.5c1,0,2,0.1,2.9,0.4C152.1,85.1,152.1,85.2,152.2,85.3z M150.8,87.8c0.6,0.5,1.2,1,1.9,1.4
			c-0.8,0.1-1.5,0.3-2.3,0.7c-0.1,0.1-0.2,0.1-0.4,0.2c-0.9-0.4-1.7-1-2.4-1.7c0.9-0.4,1.9-0.7,2.9-0.8
			C150.6,87.6,150.7,87.7,150.8,87.8z M150.1,90.4c0.1,0.1,0.3,0.1,0.4,0.2c0.7,0.3,1.5,0.5,2.2,0.5c-0.7,0.4-1.3,0.9-1.8,1.5
			c-0.1,0.1-0.2,0.2-0.3,0.3c-1,0-2-0.3-2.9-0.7C148.4,91.4,149.2,90.8,150.1,90.4z M150.8,93.2c0.1,0,0.3,0,0.4,0
			c0.8,0,1.6-0.1,2.3-0.4c-0.5,0.6-0.8,1.3-1.1,2c-0.1,0.1-0.1,0.3-0.1,0.4c-0.9,0.3-1.9,0.5-2.9,0.5
			C149.6,94.9,150.1,94,150.8,93.2z M155.4,93.8c0.5-0.5,0.9-1,1.3-1.6c-0.1,0.7-0.1,1.3-0.1,2c-0.4,0.9-0.9,1.6-1.6,2.3
			c0,0,0,0,0,0c0,0,0,0,0-0.1C155,95.6,155.2,94.6,155.4,93.8z M157,94.3c0.3-0.6,0.5-1.3,0.6-1.9c0.2,0.7,0.4,1.3,0.7,1.9
			c0,0.9-0.2,1.8-0.6,2.7c0,0,0,0,0,0.1c0,0,0,0,0-0.1C157.3,96.1,157.1,95.2,157,94.3z M158.1,97.1c0.3-0.7,0.5-1.5,0.5-2.2
			c0.4,0.7,0.9,1.3,1.4,1.8c0.1,0.1,0.2,0.2,0.3,0.3c0,1-0.3,2-0.6,2.9c-0.7-0.7-1.3-1.4-1.8-2.3C158,97.4,158.1,97.3,158.1,97.1z
			 M163,94.7c-0.3-0.7-0.7-1.4-1.2-2c0.7,0.2,1.5,0.3,2.3,0.3c0.1,0,0.3,0,0.4,0c0.7,0.7,1.2,1.6,1.6,2.5c-1,0-2-0.1-2.9-0.4
			C163.1,94.9,163.1,94.8,163,94.7z M164.4,92.2c-0.6-0.5-1.2-1-1.9-1.4c0.8-0.1,1.5-0.3,2.2-0.6c0.1-0.1,0.3-0.1,0.4-0.2
			c0.9,0.4,1.7,1,2.4,1.7c-0.9,0.4-1.9,0.7-2.9,0.8C164.6,92.4,164.5,92.3,164.4,92.2z M165.1,89.6c-0.1-0.1-0.2-0.1-0.4-0.2
			c-0.7-0.3-1.5-0.5-2.2-0.5c0.6-0.4,1.2-0.9,1.8-1.4c0.1-0.1,0.2-0.2,0.3-0.3c1,0,2,0.3,2.9,0.6C166.8,88.5,166,89.2,165.1,89.6z
			 M166.4,80.9c0.1,1-0.1,2-0.4,3c-1,0-2,0.1-2.9,0.4c0.3-0.9,0.4-1.9,0.3-2.9C164.3,81,165.3,80.9,166.4,80.9z M162.2,78.2
			c0.4,0.9,0.7,1.9,0.8,2.9c-0.9,0.4-1.8,0.9-2.5,1.5c-0.1-1-0.4-1.9-0.8-2.8C160.4,79.1,161.2,78.6,162.2,78.2z M157.3,77.3
			c0.8,0.7,1.4,1.5,1.8,2.3c-0.7,0.7-1.3,1.5-1.8,2.4c-0.5-0.9-1.1-1.6-1.8-2.3C156,78.9,156.6,78.1,157.3,77.3z M152.5,78.4
			c1,0.3,1.9,0.8,2.6,1.5c-0.4,0.9-0.6,1.8-0.7,2.8c-0.8-0.6-1.7-1.1-2.6-1.4C151.9,80.3,152.1,79.3,152.5,78.4z M148.5,81.2
			c1-0.1,2,0.1,3,0.4c0,1,0.1,2,0.4,2.9c-0.9-0.3-1.9-0.4-2.9-0.3C148.6,83.3,148.5,82.3,148.5,81.2z M145.8,85.4
			c0.9-0.4,1.9-0.7,2.9-0.8c0.4,0.9,0.9,1.8,1.5,2.5c-1,0.1-1.9,0.4-2.8,0.8C146.7,87.2,146.2,86.4,145.8,85.4z M144.9,90.3
			c0.7-0.8,1.5-1.4,2.3-1.8c0.7,0.7,1.5,1.3,2.4,1.8c-0.9,0.5-1.6,1.1-2.3,1.8C146.5,91.6,145.7,91,144.9,90.3z M146,95.1
			c0.3-1,0.8-1.9,1.5-2.6c0.9,0.4,1.9,0.6,2.8,0.7c-0.6,0.8-1.1,1.7-1.4,2.6C147.9,95.7,146.9,95.5,146,95.1z M148.8,99.1
			c-0.1-1,0.1-2,0.4-3c1,0,2-0.1,2.9-0.4c-0.3,1-0.4,1.9-0.3,2.9C150.9,99,149.8,99.2,148.8,99.1z M153,101.8
			c-0.4-0.9-0.7-1.9-0.8-2.9c0.9-0.4,1.8-0.9,2.5-1.5c0.1,1,0.4,1.9,0.8,2.8C154.8,100.9,154,101.4,153,101.8z M157.9,102.7
			c-0.8-0.7-1.4-1.5-1.8-2.3c0.7-0.7,1.3-1.5,1.8-2.4c0.5,0.9,1.1,1.6,1.8,2.3C159.2,101.1,158.6,101.9,157.9,102.7z M162.7,101.6
			c-1-0.3-1.9-0.8-2.6-1.5c0.4-0.9,0.6-1.8,0.7-2.8c0.8,0.6,1.7,1.1,2.6,1.4C163.3,99.7,163.1,100.7,162.7,101.6z M166.7,98.8
			c-1,0.1-2-0.1-3-0.4c0-1-0.1-2-0.4-2.9c0.9,0.3,1.9,0.4,2.9,0.3C166.6,96.7,166.8,97.7,166.7,98.8z M169.4,94.6
			c-0.9,0.4-1.9,0.7-2.9,0.8c-0.4-0.9-0.9-1.8-1.5-2.5c1-0.1,1.9-0.4,2.8-0.8C168.5,92.8,169,93.6,169.4,94.6z M167.9,91.6
			c-0.7-0.7-1.5-1.3-2.4-1.8c0.9-0.5,1.6-1.1,2.3-1.8c0.9,0.4,1.7,1,2.5,1.8C169.6,90.5,168.8,91.1,167.9,91.6z"/>
		<path fill="#DBB65B" d="M151.1,137.7c-0.7-0.8-1.6-1.5-2.6-1.9c0.7-0.8,1.2-1.8,1.5-2.8l0.1-0.2l-0.2-0.1c-1-0.4-2-0.7-3.1-0.8
			c0.3-1,0.4-2.1,0.3-3.2l0-0.2l-0.2,0c-1.1,0-2.2,0.1-3.2,0.5c-0.1-1.1-0.4-2.1-0.9-3.1l-0.1-0.2l-0.2,0.1c-1,0.4-1.9,0.9-2.7,1.6
			c-0.5-0.9-1.2-1.8-2-2.5l-0.1-0.1l-0.1,0.1c-0.8,0.7-1.4,1.6-1.9,2.6c-0.8-0.7-1.8-1.2-2.8-1.5l-0.2-0.1l-0.1,0.2
			c-0.4,1-0.7,2-0.8,3.1c-1-0.3-2.1-0.4-3.2-0.3l-0.2,0l0,0.2c0,1.1,0.1,2.2,0.5,3.2c-1.1,0.1-2.1,0.4-3.1,0.9l-0.2,0.1l0.1,0.2
			c0.4,1,0.9,1.9,1.6,2.7c-0.9,0.5-1.8,1.2-2.5,2l-0.1,0.1l0.1,0.1c0.7,0.8,1.6,1.4,2.6,1.9c-0.7,0.8-1.2,1.8-1.5,2.8l-0.1,0.2
			l0.2,0.1c0.2,0.1,0.3,0.1,0.5,0.2c0.9,0.3,1.7,0.5,2.6,0.6c-0.3,1-0.4,2.1-0.3,3.2l0,0.2l0.2,0c0.2,0,0.3,0,0.5,0
			c0.9,0,1.8-0.2,2.7-0.5c0.1,1.1,0.4,2.1,0.9,3.1l0.1,0.2l0.2-0.1c1-0.4,1.9-0.9,2.7-1.6c0.5,0.9,1.2,1.8,2,2.5l0.1,0.1l0.1-0.1
			c0.8-0.7,1.4-1.6,1.9-2.6c0.7,0.6,1.5,1,2.4,1.4c0.2,0.1,0.3,0.1,0.5,0.2l0.2,0.1l0.1-0.2c0.4-1,0.7-2,0.8-3.1
			c0.9,0.3,1.8,0.4,2.7,0.4c0.2,0,0.3,0,0.5,0l0.2,0l0-0.2c0-1.1-0.1-2.2-0.5-3.2c1.1-0.1,2.1-0.4,3.1-0.9l0.2-0.1l-0.1-0.2
			c-0.4-1-0.9-1.9-1.6-2.7c0.9-0.5,1.8-1.2,2.5-2l0.1-0.1L151.1,137.7z M149.6,133c-0.3,1-0.8,1.8-1.5,2.6c-0.9-0.4-1.8-0.6-2.8-0.7
			c0.6-0.8,1.1-1.7,1.4-2.6C147.7,132.3,148.6,132.6,149.6,133z M143.8,146.3c-0.9-0.3-1.8-0.8-2.6-1.5c0-0.1,0-0.3,0-0.4
			c0-0.8-0.1-1.6-0.4-2.3c0.6,0.5,1.3,0.8,2,1.1c0.1,0.1,0.3,0.1,0.4,0.1C143.6,144.3,143.8,145.3,143.8,146.3z M140.8,144.5
			C140.8,144.5,140.8,144.5,140.8,144.5C140.8,144.5,140.8,144.5,140.8,144.5c-0.7-0.6-1.3-1.4-1.7-2.2c0-0.7,0-1.4-0.2-2
			c0.4,0.5,0.9,1,1.4,1.5C140.6,142.6,140.8,143.5,140.8,144.5z M136.2,148c-0.4-0.9-0.7-1.9-0.8-2.9c0.1-0.1,0.2-0.2,0.3-0.3
			c0.6-0.6,1-1.2,1.4-1.9c0.1,0.8,0.3,1.5,0.7,2.2c0.1,0.1,0.1,0.2,0.2,0.4C137.5,146.5,136.9,147.3,136.2,148z M135,144.6
			c0,0.1,0,0.3,0,0.4c-0.7,0.7-1.6,1.2-2.5,1.6c0-1,0.1-2,0.4-2.9c0.1,0,0.2-0.1,0.4-0.1c0.7-0.3,1.4-0.7,2-1.2
			C135.1,143,135,143.8,135,144.6z M132.2,129.8c0.9,0.3,1.8,0.8,2.6,1.5c0,0.1,0,0.3,0,0.4c0,0.8,0.1,1.6,0.4,2.3
			c-0.6-0.5-1.3-0.8-2-1.1c-0.1-0.1-0.3-0.1-0.4-0.1C132.4,131.7,132.2,130.8,132.2,129.8z M135.2,131.6
			C135.2,131.6,135.2,131.6,135.2,131.6C135.2,131.6,135.2,131.6,135.2,131.6c0.7,0.6,1.3,1.4,1.7,2.2c0,0.7,0,1.4,0.2,2
			c-0.4-0.5-0.9-1-1.4-1.5C135.4,133.5,135.2,132.6,135.2,131.6z M139.8,128.1c0.4,0.9,0.7,1.9,0.8,2.9c-0.1,0.1-0.2,0.2-0.3,0.3
			c-0.5,0.6-1,1.2-1.4,1.9c-0.1-0.8-0.3-1.5-0.6-2.2c-0.1-0.1-0.1-0.2-0.2-0.4C138.5,129.6,139.1,128.8,139.8,128.1z M140.9,131.5
			c0-0.1,0-0.3,0-0.4c0.7-0.7,1.6-1.2,2.5-1.6c0,1-0.1,2-0.4,2.9c-0.1,0.1-0.3,0.1-0.4,0.2c-0.7,0.3-1.4,0.7-1.9,1.2
			C140.9,133.1,141,132.3,140.9,131.5z M138.2,137c0-0.8,0.2-1.5,0.4-2.2C138.6,135.5,138.4,136.2,138.2,137
			C138.2,137,138.2,137,138.2,137C138.2,137,138.2,137,138.2,137z M138.8,137.5C138.8,137.5,138.8,137.5,138.8,137.5
			c0.6-0.5,1.2-1,1.9-1.3C140.2,136.7,139.5,137.1,138.8,137.5C138.8,137.5,138.8,137.5,138.8,137.5z M139.6,136.3
			c0.4-0.6,0.6-1.2,0.9-1.9c0.7-0.6,1.4-1.1,2.3-1.5c0,0,0.1,0,0.1,0c0,0,0,0,0,0.1c-0.3,0.9-0.8,1.7-1.4,2.4
			C140.8,135.7,140.2,136,139.6,136.3z M138.5,137.2C138.5,137.2,138.5,137.2,138.5,137.2c0,0,0-0.1,0-0.1c0.3-0.7,0.8-1.4,1.3-1.9
			C139.5,135.9,139.1,136.6,138.5,137.2z M137.8,137.1c-0.3-0.8-0.4-1.5-0.5-2.3C137.5,135.5,137.7,136.2,137.8,137.1
			C137.8,137,137.8,137,137.8,137.1z M137.4,137.2C137.4,137.2,137.4,137.2,137.4,137.2c-0.5-0.6-1-1.2-1.3-1.9
			C136.6,135.9,137.1,136.5,137.4,137.2C137.4,137.2,137.4,137.2,137.4,137.2z M136.3,136.4c-0.6-0.4-1.2-0.6-1.8-0.9
			c-0.6-0.7-1.1-1.5-1.5-2.3c0,0,0,0,0-0.1c0,0,0,0,0.1,0c0.9,0.3,1.7,0.8,2.4,1.4C135.6,135.2,135.9,135.8,136.3,136.4z
			 M137.2,137.5C137.2,137.5,137.2,137.5,137.2,137.5c-0.7-0.3-1.4-0.8-2-1.3C135.9,136.6,136.6,137,137.2,137.5z M135.8,137.2
			c-0.7-0.1-1.3-0.1-2-0.1c-0.9-0.4-1.6-0.9-2.3-1.6c0,0,0,0,0,0c0,0,0,0,0.1,0c0.9,0,1.9,0.1,2.7,0.4
			C134.7,136.4,135.2,136.8,135.8,137.2z M137,137.9c-0.8,0-1.5-0.2-2.2-0.4C135.5,137.5,136.3,137.6,137,137.9z M135.6,138.1
			c-0.7,0.2-1.3,0.4-1.9,0.7c-0.9,0-1.8-0.2-2.7-0.6c0,0,0,0-0.1,0c0,0,0,0,0,0c0.9-0.4,1.8-0.6,2.7-0.7
			C134.3,137.8,135,138,135.6,138.1z M137,138.3c-0.7,0.3-1.5,0.4-2.3,0.5C135.5,138.5,136.2,138.3,137,138.3z M135.8,139
			c-0.5,0.4-1,0.9-1.5,1.4c-0.9,0.3-1.8,0.5-2.8,0.5c0,0,0,0-0.1,0c0,0,0,0,0,0c0.7-0.7,1.4-1.2,2.2-1.7
			C134.5,139.2,135.2,139.1,135.8,139z M137.2,138.6C137.2,138.6,137.2,138.6,137.2,138.6C137.2,138.6,137.2,138.6,137.2,138.6
			c-0.6,0.5-1.2,1-1.9,1.3C135.8,139.4,136.5,139,137.2,138.6z M136.3,139.8c-0.4,0.6-0.6,1.2-0.9,1.8c-0.7,0.6-1.5,1.2-2.3,1.5
			c0,0,0,0,0,0c0,0,0,0,0-0.1c0.3-0.9,0.8-1.7,1.4-2.4C135.2,140.4,135.8,140.1,136.3,139.8z M137.4,138.9c-0.3,0.7-0.8,1.4-1.3,2
			C136.5,140.2,136.9,139.5,137.4,138.9z M137.8,139.1c0,0.8-0.2,1.5-0.4,2.2C137.4,140.5,137.6,139.8,137.8,139.1z M138.2,139
			c0.3,0.8,0.5,1.5,0.5,2.3C138.4,140.6,138.3,139.8,138.2,139C138.2,139,138.2,139,138.2,139z M138.6,138.9
			C138.6,138.9,138.6,138.9,138.6,138.9c0.5,0.6,1,1.2,1.3,1.9C139.4,140.2,138.9,139.6,138.6,138.9
			C138.6,138.9,138.6,138.9,138.6,138.9z M139.7,139.7c0.6,0.4,1.2,0.6,1.8,0.9c0.6,0.7,1.1,1.5,1.5,2.3c0,0,0,0,0,0.1
			c0,0,0,0-0.1,0c-0.9-0.3-1.7-0.8-2.4-1.4C140.4,140.8,140.1,140.3,139.7,139.7z M138.8,138.6C138.9,138.6,138.9,138.6,138.8,138.6
			c0.8,0.4,1.4,0.8,2,1.3C140.1,139.5,139.5,139.1,138.8,138.6z M140.2,138.9c0.7,0.1,1.3,0.1,2,0.1c0.8,0.4,1.6,0.9,2.3,1.6
			c0,0,0,0,0,0c0,0,0,0-0.1,0c-0.9,0-1.9-0.1-2.7-0.4C141.3,139.7,140.8,139.3,140.2,138.9z M139.1,138.3
			C139,138.3,139,138.2,139.1,138.3C139,138.2,139.1,138.2,139.1,138.3c0.8,0,1.5,0.1,2.2,0.4C140.6,138.6,139.8,138.5,139.1,138.3z
			 M140.4,138c0.7-0.2,1.3-0.4,1.9-0.7c0.9,0,1.8,0.2,2.7,0.6c0,0,0,0,0.1,0c0,0-0.1,0-0.1,0c-0.9,0.4-1.8,0.6-2.7,0.7
			C141.7,138.3,141.1,138.1,140.4,138z M139.1,137.8c0,0-0.1,0-0.1,0c0,0,0,0,0,0c0.8-0.3,1.6-0.5,2.4-0.5
			C140.6,137.6,139.8,137.8,139.1,137.8z M140.2,137.1c0.5-0.4,1-0.9,1.5-1.4c0.9-0.3,1.8-0.5,2.8-0.5c0,0,0,0,0.1,0
			c0,0,0,0-0.1,0.1c-0.6,0.7-1.4,1.2-2.2,1.6C141.5,136.9,140.8,137,140.2,137.1z M144.4,134.8c-0.8,0-1.6,0.1-2.3,0.4
			c0.5-0.6,0.8-1.3,1.1-2c0.1-0.1,0.1-0.3,0.1-0.4c0.9-0.3,1.9-0.5,2.9-0.5c-0.3,0.9-0.8,1.8-1.5,2.6
			C144.7,134.8,144.5,134.8,144.4,134.8z M140.2,134.3c-0.5,0.5-0.9,1-1.3,1.5c0.1-0.7,0.1-1.3,0.1-2c0.4-0.8,0.9-1.6,1.6-2.3
			c0,0,0,0,0.1-0.1c0,0,0,0,0,0.1C140.6,132.5,140.5,133.4,140.2,134.3z M138.6,133.7c-0.3,0.6-0.5,1.2-0.6,1.9
			c-0.2-0.7-0.4-1.3-0.7-1.9c0-0.9,0.2-1.8,0.6-2.7c0,0,0,0,0-0.1c0,0,0,0,0,0.1C138.2,131.9,138.5,132.8,138.6,133.7z M137.5,130.9
			c-0.3,0.7-0.5,1.5-0.5,2.2c-0.4-0.7-0.9-1.3-1.4-1.8c-0.1-0.1-0.2-0.2-0.3-0.3c0-1,0.3-2,0.6-2.9c0.7,0.7,1.3,1.4,1.8,2.3
			C137.6,130.7,137.5,130.8,137.5,130.9z M132.6,133.4c0.3,0.7,0.7,1.4,1.2,2c-0.7-0.2-1.5-0.3-2.3-0.3c-0.1,0-0.3,0-0.4,0
			c-0.7-0.7-1.2-1.6-1.6-2.5c1,0,2,0.1,2.9,0.4C132.5,133.1,132.5,133.3,132.6,133.4z M131.2,135.8c0.6,0.5,1.2,1,1.9,1.4
			c-0.8,0.1-1.5,0.3-2.3,0.7c-0.1,0.1-0.2,0.1-0.4,0.2c-0.9-0.4-1.7-1-2.4-1.7c0.9-0.4,1.9-0.7,2.9-0.8
			C131,135.6,131.1,135.7,131.2,135.8z M130.5,138.4c0.1,0.1,0.3,0.1,0.4,0.2c0.7,0.3,1.5,0.5,2.2,0.5c-0.7,0.4-1.3,0.9-1.8,1.5
			c-0.1,0.1-0.2,0.2-0.3,0.3c-1,0-2-0.3-2.9-0.7C128.8,139.5,129.6,138.9,130.5,138.4z M131.2,141.3c0.1,0,0.3,0,0.4,0
			c0.8,0,1.6-0.1,2.3-0.4c-0.5,0.6-0.8,1.3-1.1,2c-0.1,0.1-0.1,0.3-0.1,0.4c-0.9,0.3-1.9,0.5-2.9,0.5
			C130,142.9,130.5,142,131.2,141.3z M135.8,141.8c0.5-0.5,0.9-1,1.3-1.6c-0.1,0.7-0.1,1.3-0.1,2c-0.4,0.9-0.9,1.6-1.6,2.3
			c0,0,0,0,0,0c0,0,0,0,0-0.1C135.4,143.6,135.5,142.7,135.8,141.8z M137.4,142.3c0.3-0.6,0.5-1.3,0.6-1.9c0.2,0.7,0.4,1.3,0.7,1.9
			c0,0.9-0.2,1.8-0.6,2.7c0,0,0,0,0,0.1c0,0,0,0,0-0.1C137.7,144.2,137.5,143.3,137.4,142.3z M138.5,145.2c0.3-0.7,0.5-1.5,0.5-2.2
			c0.4,0.7,0.9,1.3,1.4,1.8c0.1,0.1,0.2,0.2,0.3,0.3c0,1-0.3,2-0.6,2.9c-0.7-0.7-1.3-1.4-1.8-2.3
			C138.4,145.4,138.5,145.3,138.5,145.2z M143.4,142.7c-0.3-0.7-0.7-1.4-1.2-2c0.7,0.2,1.5,0.3,2.3,0.3c0.1,0,0.3,0,0.4,0
			c0.7,0.7,1.2,1.6,1.6,2.5c-1,0-2-0.1-2.9-0.4C143.5,143,143.5,142.8,143.4,142.7z M144.8,140.3c-0.6-0.5-1.2-1-1.9-1.4
			c0.8-0.1,1.5-0.3,2.2-0.6c0.1-0.1,0.3-0.1,0.4-0.2c0.9,0.4,1.7,1,2.4,1.7c-0.9,0.4-1.9,0.7-2.9,0.8
			C145,140.5,144.9,140.4,144.8,140.3z M145.5,137.7c-0.1-0.1-0.2-0.1-0.4-0.2c-0.7-0.3-1.5-0.5-2.2-0.5c0.6-0.4,1.2-0.9,1.8-1.4
			c0.1-0.1,0.2-0.2,0.3-0.3c1,0,2,0.3,2.9,0.6C147.2,136.6,146.4,137.2,145.5,137.7z M146.8,128.9c0.1,1-0.1,2-0.4,3
			c-1,0-2,0.1-2.9,0.4c0.3-0.9,0.4-1.9,0.3-2.9C144.7,129.1,145.7,128.9,146.8,128.9z M142.6,126.2c0.4,0.9,0.7,1.9,0.8,2.9
			c-0.9,0.4-1.8,0.9-2.5,1.5c-0.1-1-0.4-1.9-0.8-2.8C140.8,127.2,141.6,126.6,142.6,126.2z M137.7,125.4c0.8,0.7,1.4,1.5,1.8,2.3
			c-0.7,0.7-1.3,1.5-1.8,2.4c-0.5-0.9-1.1-1.6-1.8-2.3C136.4,126.9,137,126.1,137.7,125.4z M132.9,126.5c1,0.3,1.9,0.8,2.6,1.5
			c-0.4,0.9-0.6,1.8-0.7,2.8c-0.8-0.6-1.7-1.1-2.6-1.4C132.3,128.4,132.5,127.4,132.9,126.5z M128.9,129.3c1-0.1,2,0.1,3,0.4
			c0,1,0.1,2,0.4,2.9c-0.9-0.3-1.9-0.4-2.9-0.3C129,131.3,128.9,130.3,128.9,129.3z M126.2,133.5c0.9-0.4,1.9-0.7,2.9-0.8
			c0.4,0.9,0.9,1.8,1.5,2.5c-1,0.1-1.9,0.4-2.8,0.8C127.1,135.3,126.6,134.4,126.2,133.5z M125.3,138.3c0.7-0.8,1.5-1.4,2.3-1.8
			c0.7,0.7,1.5,1.3,2.4,1.8c-0.9,0.5-1.6,1.1-2.3,1.8C126.9,139.6,126,139,125.3,138.3z M126.4,143.2c0.3-1,0.8-1.9,1.5-2.6
			c0.9,0.4,1.9,0.6,2.8,0.7c-0.6,0.8-1.1,1.7-1.4,2.6C128.3,143.8,127.3,143.6,126.4,143.2z M129.2,147.2c-0.1-1,0.1-2,0.4-3
			c1,0,2-0.1,2.9-0.4c-0.3,1-0.4,1.9-0.3,2.9C131.3,147,130.2,147.2,129.2,147.2z M133.4,149.8c-0.4-0.9-0.7-1.9-0.8-2.9
			c0.9-0.4,1.8-0.9,2.5-1.5c0.1,1,0.4,1.9,0.8,2.8C135.2,148.9,134.4,149.5,133.4,149.8z M138.3,150.7c-0.8-0.7-1.4-1.5-1.8-2.3
			c0.7-0.7,1.3-1.5,1.8-2.4c0.5,0.9,1.1,1.6,1.8,2.3C139.6,149.2,139,150,138.3,150.7z M143.1,149.6c-1-0.3-1.9-0.8-2.6-1.5
			c0.4-0.9,0.6-1.8,0.7-2.8c0.8,0.6,1.7,1.1,2.6,1.4C143.7,147.7,143.5,148.7,143.1,149.6z M147.1,146.8c-1,0.1-2-0.1-3-0.4
			c0-1-0.1-2-0.4-2.9c0.9,0.3,1.9,0.4,2.9,0.3C147,144.8,147.1,145.8,147.1,146.8z M149.8,142.6c-0.9,0.4-1.9,0.7-2.9,0.8
			c-0.4-0.9-0.9-1.8-1.5-2.5c1-0.1,1.9-0.4,2.8-0.8C148.9,140.8,149.4,141.7,149.8,142.6z M148.3,139.6c-0.7-0.7-1.5-1.3-2.4-1.8
			c0.9-0.5,1.6-1.1,2.3-1.8c0.9,0.4,1.7,1,2.5,1.8C150,138.5,149.2,139.2,148.3,139.6z"/>
		<path fill="#DBB65B" d="M103.1,157.3c-0.7-0.8-1.6-1.5-2.6-1.9c0.7-0.8,1.2-1.8,1.5-2.8l0.1-0.2l-0.2-0.1c-1-0.4-2-0.7-3.1-0.8
			c0.3-1,0.4-2.1,0.3-3.2l0-0.2l-0.2,0c-1.1,0-2.2,0.1-3.2,0.5c-0.1-1.1-0.4-2.1-0.9-3.1l-0.1-0.2l-0.2,0.1c-1,0.4-1.9,0.9-2.7,1.6
			c-0.5-0.9-1.2-1.8-2-2.5l-0.1-0.1l-0.1,0.1c-0.8,0.7-1.4,1.6-1.9,2.6c-0.8-0.7-1.8-1.2-2.8-1.5l-0.2-0.1l-0.1,0.2
			c-0.4,1-0.7,2-0.8,3.1c-1-0.3-2.1-0.4-3.2-0.3l-0.2,0l0,0.2c0,1.1,0.1,2.2,0.5,3.2c-1.1,0.1-2.1,0.4-3.1,0.9l-0.2,0.1l0.1,0.2
			c0.4,1,0.9,1.9,1.6,2.7c-0.9,0.5-1.8,1.2-2.5,2l-0.1,0.1l0.1,0.1c0.7,0.8,1.6,1.4,2.6,1.9c-0.7,0.8-1.2,1.8-1.5,2.8l-0.1,0.2
			l0.2,0.1c0.2,0.1,0.3,0.1,0.5,0.2c0.9,0.3,1.7,0.5,2.6,0.6c-0.3,1-0.4,2.1-0.3,3.2l0,0.2l0.2,0c0.2,0,0.3,0,0.5,0
			c0.9,0,1.8-0.2,2.7-0.5c0.1,1.1,0.4,2.1,0.9,3.1l0.1,0.2l0.2-0.1c1-0.4,1.9-0.9,2.7-1.6c0.5,0.9,1.2,1.8,2,2.5l0.1,0.1l0.1-0.1
			c0.8-0.7,1.4-1.6,1.9-2.6c0.7,0.6,1.5,1,2.4,1.4c0.2,0.1,0.3,0.1,0.5,0.2l0.2,0.1l0.1-0.2c0.4-1,0.7-2,0.8-3.1
			c0.9,0.3,1.8,0.4,2.7,0.4c0.2,0,0.3,0,0.5,0l0.2,0l0-0.2c0-1.1-0.1-2.2-0.5-3.2c1.1-0.1,2.1-0.4,3.1-0.9l0.2-0.1l-0.1-0.2
			c-0.4-1-0.9-1.9-1.6-2.7c0.9-0.5,1.8-1.2,2.5-2l0.1-0.1L103.1,157.3z M101.6,152.6c-0.3,1-0.8,1.8-1.5,2.6
			c-0.9-0.4-1.8-0.6-2.8-0.7c0.6-0.8,1.1-1.7,1.4-2.6C99.7,152,100.6,152.2,101.6,152.6z M95.8,166c-0.9-0.3-1.8-0.8-2.6-1.5
			c0-0.1,0-0.3,0-0.4c0-0.8-0.1-1.6-0.4-2.3c0.6,0.5,1.3,0.8,2,1.1c0.1,0.1,0.3,0.1,0.4,0.1C95.6,164,95.8,165,95.8,166z
			 M92.8,164.1C92.8,164.1,92.8,164.1,92.8,164.1C92.8,164.1,92.8,164.1,92.8,164.1c-0.7-0.6-1.3-1.4-1.7-2.2c0-0.7,0-1.4-0.2-2
			c0.4,0.5,0.8,1,1.4,1.5C92.6,162.2,92.8,163.1,92.8,164.1z M88.2,167.6c-0.4-0.9-0.7-1.9-0.8-2.9c0.1-0.1,0.2-0.2,0.3-0.3
			c0.6-0.6,1-1.2,1.4-1.9c0.1,0.8,0.3,1.5,0.7,2.2c0.1,0.1,0.1,0.2,0.2,0.4C89.5,166.1,88.9,166.9,88.2,167.6z M87,164.2
			c0,0.1,0,0.3,0,0.4c-0.7,0.7-1.6,1.2-2.5,1.6c0-1,0.1-2,0.4-2.9c0.1,0,0.2-0.1,0.4-0.1c0.7-0.3,1.4-0.7,2-1.2
			C87.1,162.7,87,163.4,87,164.2z M84.2,149.4c0.9,0.3,1.8,0.8,2.6,1.5c0,0.1,0,0.3,0,0.4c0,0.8,0.1,1.6,0.4,2.3
			c-0.6-0.5-1.3-0.8-2-1.1c-0.1-0.1-0.3-0.1-0.4-0.1C84.4,151.4,84.2,150.4,84.2,149.4z M87.2,151.3
			C87.2,151.3,87.2,151.2,87.2,151.3C87.2,151.2,87.2,151.2,87.2,151.3c0.7,0.6,1.3,1.4,1.7,2.2c0,0.7,0,1.4,0.2,2
			c-0.4-0.5-0.8-1-1.4-1.5C87.4,153.2,87.2,152.2,87.2,151.3z M91.8,147.7c0.4,0.9,0.7,1.9,0.8,2.9c-0.1,0.1-0.2,0.2-0.3,0.3
			c-0.5,0.6-1,1.2-1.4,1.9c-0.1-0.8-0.3-1.5-0.6-2.2c-0.1-0.1-0.1-0.2-0.2-0.4C90.5,149.3,91.1,148.4,91.8,147.7z M93,151.2
			c0-0.1,0-0.3,0-0.4c0.7-0.7,1.6-1.2,2.5-1.6c0,1-0.1,2-0.4,2.9c-0.1,0.1-0.3,0.1-0.4,0.2c-0.7,0.3-1.4,0.7-1.9,1.2
			C92.9,152.7,93,151.9,93,151.2z M90.2,156.6c0-0.8,0.2-1.5,0.4-2.2C90.6,155.1,90.4,155.9,90.2,156.6
			C90.2,156.6,90.2,156.7,90.2,156.6C90.2,156.7,90.2,156.6,90.2,156.6z M90.8,157.1C90.8,157.1,90.8,157.1,90.8,157.1
			c0.6-0.5,1.2-1,1.9-1.3C92.2,156.3,91.5,156.8,90.8,157.1C90.8,157.1,90.8,157.1,90.8,157.1z M91.6,156c0.4-0.6,0.6-1.2,0.9-1.9
			c0.7-0.6,1.4-1.1,2.3-1.5c0,0,0.1,0,0.1,0c0,0,0,0,0,0.1c-0.3,0.9-0.8,1.7-1.4,2.4C92.8,155.3,92.2,155.6,91.6,156z M90.5,156.9
			C90.5,156.9,90.5,156.9,90.5,156.9c0,0,0-0.1,0-0.1c0.3-0.7,0.8-1.4,1.3-1.9C91.5,155.5,91.1,156.2,90.5,156.9z M89.8,156.7
			c-0.3-0.8-0.4-1.5-0.5-2.3C89.5,155.1,89.7,155.8,89.8,156.7C89.8,156.6,89.8,156.7,89.8,156.7z M89.4,156.9
			C89.4,156.9,89.4,156.9,89.4,156.9c-0.5-0.6-1-1.2-1.3-1.9C88.6,155.5,89.1,156.2,89.4,156.9C89.4,156.9,89.4,156.9,89.4,156.9z
			 M88.3,156c-0.6-0.4-1.2-0.6-1.8-0.9c-0.6-0.7-1.1-1.5-1.5-2.3c0,0,0,0,0-0.1c0,0,0,0,0.1,0c0.9,0.3,1.7,0.8,2.4,1.4
			C87.6,154.9,87.9,155.5,88.3,156z M89.2,157.2C89.2,157.2,89.2,157.2,89.2,157.2c-0.7-0.3-1.4-0.8-2-1.3
			C87.9,156.2,88.6,156.6,89.2,157.2z M87.8,156.8c-0.7-0.1-1.3-0.1-2-0.1c-0.8-0.4-1.6-0.9-2.3-1.6c0,0,0,0,0,0c0,0,0,0,0.1,0
			c0.9,0,1.9,0.1,2.7,0.4C86.7,156,87.2,156.5,87.8,156.8z M89,157.5c-0.8,0-1.5-0.2-2.2-0.4C87.5,157.1,88.3,157.3,89,157.5z
			 M87.6,157.7c-0.7,0.2-1.3,0.4-1.9,0.7c-0.9,0-1.8-0.2-2.7-0.6c0,0,0,0-0.1,0c0,0,0,0,0,0c0.9-0.4,1.8-0.6,2.7-0.7
			C86.3,157.4,87,157.6,87.6,157.7z M89,157.9c-0.7,0.3-1.5,0.4-2.3,0.5C87.5,158.1,88.2,158,89,157.9z M87.8,158.6
			c-0.5,0.4-1,0.9-1.5,1.4c-0.9,0.3-1.8,0.5-2.8,0.5c0,0,0,0-0.1,0c0,0,0,0,0,0c0.7-0.7,1.4-1.2,2.2-1.7
			C86.5,158.8,87.2,158.8,87.8,158.6z M89.2,158.3C89.2,158.3,89.2,158.3,89.2,158.3C89.2,158.3,89.2,158.3,89.2,158.3
			c-0.6,0.5-1.2,1-1.9,1.3C87.8,159.1,88.5,158.6,89.2,158.3z M88.4,159.4c-0.4,0.6-0.6,1.2-0.9,1.8c-0.7,0.6-1.5,1.2-2.3,1.5
			c0,0,0,0,0,0c0,0,0,0,0-0.1c0.3-0.9,0.8-1.7,1.4-2.4C87.2,160.1,87.8,159.8,88.4,159.4z M89.4,158.5c-0.3,0.7-0.8,1.4-1.3,2
			C88.5,159.8,88.9,159.1,89.4,158.5z M89.8,158.7c0,0.8-0.2,1.5-0.4,2.2C89.4,160.2,89.6,159.4,89.8,158.7z M90.2,158.7
			c0.3,0.8,0.5,1.5,0.5,2.3C90.4,160.2,90.3,159.4,90.2,158.7C90.2,158.6,90.2,158.6,90.2,158.7z M90.6,158.5
			C90.6,158.5,90.6,158.5,90.6,158.5c0.5,0.6,1,1.2,1.3,1.9C91.4,159.8,90.9,159.2,90.6,158.5C90.6,158.5,90.6,158.5,90.6,158.5z
			 M91.7,159.3c0.6,0.4,1.2,0.6,1.8,0.9c0.6,0.7,1.1,1.5,1.5,2.3c0,0,0,0,0,0.1c0,0,0,0-0.1,0c-0.9-0.3-1.7-0.8-2.4-1.4
			C92.4,160.5,92.1,159.9,91.7,159.3z M90.8,158.2C90.9,158.2,90.9,158.3,90.8,158.2c0.8,0.4,1.4,0.8,2,1.3
			C92.1,159.2,91.5,158.8,90.8,158.2z M92.2,158.6c0.7,0.1,1.3,0.1,2,0.1c0.8,0.4,1.6,0.9,2.3,1.6c0,0,0,0,0,0c0,0,0,0-0.1,0
			c-0.9,0-1.9-0.1-2.7-0.4C93.3,159.4,92.8,158.9,92.2,158.6z M91.1,157.9C91,157.9,91,157.9,91.1,157.9
			C91,157.9,91.1,157.9,91.1,157.9c0.8,0,1.5,0.1,2.2,0.4C92.6,158.3,91.8,158.1,91.1,157.9z M92.4,157.6c0.7-0.2,1.3-0.4,1.9-0.7
			c0.9,0,1.8,0.2,2.7,0.6c0,0,0,0,0.1,0c0,0-0.1,0-0.1,0c-0.9,0.4-1.8,0.6-2.7,0.7C93.7,158,93.1,157.8,92.4,157.6z M91.1,157.5
			c0,0-0.1,0-0.1,0c0,0,0,0,0,0c0.8-0.3,1.6-0.5,2.4-0.5C92.6,157.2,91.9,157.4,91.1,157.5z M92.2,156.7c0.5-0.4,1-0.9,1.5-1.4
			c0.9-0.3,1.8-0.5,2.8-0.5c0,0,0,0,0.1,0c0,0,0,0-0.1,0.1c-0.6,0.7-1.4,1.2-2.2,1.6C93.5,156.5,92.8,156.6,92.2,156.7z M96.4,154.5
			c-0.8,0-1.6,0.1-2.3,0.4c0.5-0.6,0.8-1.3,1.1-2c0.1-0.1,0.1-0.3,0.1-0.4c0.9-0.3,1.9-0.5,2.9-0.5c-0.3,0.9-0.8,1.8-1.5,2.6
			C96.7,154.5,96.5,154.5,96.4,154.5z M92.2,153.9c-0.5,0.5-0.9,1-1.3,1.5c0.1-0.7,0.1-1.3,0.1-2c0.4-0.8,0.9-1.6,1.6-2.3
			c0,0,0,0,0.1-0.1c0,0,0,0,0,0.1C92.6,152.1,92.5,153,92.2,153.9z M90.6,153.4c-0.3,0.6-0.5,1.2-0.6,1.9c-0.2-0.7-0.4-1.3-0.7-1.9
			c0-0.9,0.2-1.8,0.6-2.7c0,0,0,0,0-0.1c0,0,0,0,0,0.1C90.3,151.6,90.5,152.5,90.6,153.4z M89.5,150.6c-0.3,0.7-0.5,1.5-0.5,2.2
			c-0.4-0.7-0.9-1.3-1.4-1.8c-0.1-0.1-0.2-0.2-0.3-0.3c0-1,0.3-2,0.6-2.9c0.7,0.7,1.3,1.4,1.8,2.3C89.6,150.3,89.5,150.4,89.5,150.6
			z M84.6,153c0.3,0.7,0.7,1.4,1.2,2c-0.7-0.2-1.5-0.3-2.3-0.3c-0.1,0-0.3,0-0.4,0c-0.7-0.7-1.2-1.6-1.6-2.5c1,0,2,0.1,2.9,0.4
			C84.5,152.8,84.5,152.9,84.6,153z M83.2,155.4c0.6,0.5,1.2,1,1.9,1.4c-0.8,0.1-1.5,0.3-2.3,0.7c-0.1,0.1-0.2,0.1-0.4,0.2
			c-0.9-0.4-1.7-1-2.4-1.7c0.9-0.4,1.9-0.7,2.9-0.8C83,155.2,83.1,155.3,83.2,155.4z M82.5,158.1c0.1,0.1,0.3,0.1,0.4,0.2
			c0.7,0.3,1.5,0.5,2.2,0.5c-0.7,0.4-1.3,0.9-1.8,1.5c-0.1,0.1-0.2,0.2-0.3,0.3c-1,0-2-0.3-2.9-0.7
			C80.8,159.1,81.6,158.5,82.5,158.1z M83.2,160.9c0.1,0,0.3,0,0.4,0c0.8,0,1.6-0.1,2.3-0.4c-0.5,0.6-0.8,1.3-1.1,2
			c-0.1,0.1-0.1,0.3-0.1,0.4c-0.9,0.3-1.9,0.5-2.9,0.5C82,162.6,82.5,161.7,83.2,160.9z M87.8,161.4c0.5-0.5,0.9-1,1.3-1.6
			c-0.1,0.7-0.1,1.3-0.1,2c-0.4,0.9-0.9,1.6-1.6,2.3c0,0,0,0,0,0c0,0,0,0,0-0.1C87.4,163.3,87.5,162.3,87.8,161.4z M89.4,162
			c0.3-0.6,0.5-1.3,0.6-1.9c0.2,0.7,0.4,1.3,0.7,1.9c0,0.9-0.2,1.8-0.6,2.7c0,0,0,0,0,0.1c0,0,0,0,0-0.1
			C89.7,163.8,89.5,162.9,89.4,162z M90.5,164.8c0.3-0.7,0.5-1.5,0.5-2.2c0.4,0.7,0.9,1.3,1.4,1.8c0.1,0.1,0.2,0.2,0.3,0.3
			c0,1-0.3,2-0.6,2.9c-0.7-0.7-1.3-1.4-1.8-2.3C90.4,165.1,90.5,165,90.5,164.8z M95.4,162.4c-0.3-0.7-0.7-1.4-1.2-2
			c0.7,0.2,1.5,0.3,2.3,0.3c0.1,0,0.3,0,0.4,0c0.7,0.7,1.2,1.6,1.6,2.5c-1,0-2-0.1-2.9-0.4C95.5,162.6,95.5,162.5,95.4,162.4z
			 M96.8,159.9c-0.6-0.5-1.2-1-1.9-1.4c0.8-0.1,1.5-0.3,2.2-0.6c0.1-0.1,0.3-0.1,0.4-0.2c0.9,0.4,1.7,1,2.4,1.7
			c-0.9,0.4-1.9,0.7-2.9,0.8C97,160.1,96.9,160,96.8,159.9z M97.5,157.3c-0.1-0.1-0.2-0.1-0.4-0.2c-0.7-0.3-1.5-0.5-2.2-0.5
			c0.6-0.4,1.2-0.9,1.8-1.4c0.1-0.1,0.2-0.2,0.3-0.3c1,0,2,0.3,2.9,0.6C99.2,156.2,98.4,156.8,97.5,157.3z M98.8,148.6
			c0.1,1-0.1,2-0.4,3c-1,0-2,0.1-2.9,0.4c0.3-0.9,0.4-1.9,0.3-2.9C96.7,148.7,97.7,148.6,98.8,148.6z M94.6,145.9
			c0.4,0.9,0.7,1.9,0.8,2.9c-0.9,0.4-1.8,0.9-2.5,1.5c-0.1-1-0.4-1.9-0.8-2.8C92.8,146.8,93.6,146.3,94.6,145.9z M89.7,145
			c0.8,0.7,1.4,1.5,1.8,2.3c-0.7,0.7-1.3,1.5-1.8,2.4c-0.5-0.9-1.1-1.6-1.8-2.3C88.4,146.6,89,145.7,89.7,145z M84.9,146.1
			c1,0.3,1.9,0.8,2.6,1.5c-0.4,0.9-0.6,1.8-0.7,2.8c-0.8-0.6-1.7-1.1-2.6-1.4C84.3,148,84.5,147,84.9,146.1z M80.9,148.9
			c1-0.1,2,0.1,3,0.4c0,1,0.1,2,0.4,2.9c-0.9-0.3-1.9-0.4-2.9-0.3C81,150.9,80.9,149.9,80.9,148.9z M78.2,153.1
			c0.9-0.4,1.9-0.7,2.9-0.8c0.4,0.9,0.9,1.8,1.5,2.5c-1,0.1-1.9,0.4-2.8,0.8C79.1,154.9,78.6,154,78.2,153.1z M77.3,157.9
			c0.7-0.8,1.5-1.4,2.3-1.8c0.7,0.7,1.5,1.3,2.4,1.8c-0.9,0.5-1.6,1.1-2.3,1.8C78.9,159.3,78.1,158.7,77.3,157.9z M78.4,162.8
			c0.3-1,0.8-1.9,1.5-2.6c0.9,0.4,1.9,0.6,2.8,0.7c-0.6,0.8-1.1,1.7-1.4,2.6C80.3,163.4,79.3,163.2,78.4,162.8z M81.2,166.8
			c-0.1-1,0.1-2,0.4-3c1,0,2-0.1,2.9-0.4c-0.3,1-0.4,1.9-0.3,2.9C83.3,166.7,82.2,166.9,81.2,166.8z M85.4,169.5
			c-0.4-0.9-0.7-1.9-0.8-2.9c0.9-0.4,1.8-0.9,2.5-1.5c0.1,1,0.4,1.9,0.8,2.8C87.2,168.6,86.4,169.1,85.4,169.5z M90.3,170.3
			c-0.8-0.7-1.4-1.5-1.8-2.3c0.7-0.7,1.3-1.5,1.8-2.4c0.5,0.9,1.1,1.6,1.8,2.3C91.6,168.8,91,169.6,90.3,170.3z M95.1,169.3
			c-1-0.3-1.9-0.8-2.6-1.5c0.4-0.9,0.6-1.8,0.7-2.8c0.8,0.6,1.7,1.1,2.6,1.4C95.7,167.4,95.5,168.3,95.1,169.3z M99.1,166.5
			c-1,0.1-2-0.1-3-0.4c0-1-0.1-2-0.4-2.9c0.9,0.3,1.9,0.4,2.9,0.3C99,164.4,99.1,165.4,99.1,166.5z M101.8,162.3
			c-0.9,0.4-1.9,0.7-2.9,0.8c-0.4-0.9-0.9-1.8-1.5-2.5c1-0.1,1.9-0.4,2.8-0.8C100.9,160.5,101.4,161.3,101.8,162.3z M100.3,159.3
			c-0.7-0.7-1.5-1.3-2.4-1.8c0.9-0.5,1.6-1.1,2.3-1.8c0.9,0.4,1.7,1,2.5,1.8C102,158.2,101.2,158.8,100.3,159.3z"/>
		<path fill="#DBB65B" d="M55.5,137.7c-0.7-0.8-1.6-1.5-2.6-1.9c0.7-0.8,1.2-1.8,1.5-2.8l0.1-0.2l-0.2-0.1c-1-0.4-2-0.7-3.1-0.8
			c0.3-1,0.4-2.1,0.3-3.2l0-0.2l-0.2,0c-1.1,0-2.2,0.1-3.2,0.5c-0.1-1.1-0.4-2.1-0.9-3.1l-0.1-0.2l-0.2,0.1c-1,0.4-1.9,0.9-2.7,1.6
			c-0.5-0.9-1.2-1.8-2-2.5l-0.1-0.1L42,125c-0.8,0.7-1.5,1.6-1.9,2.6c-0.8-0.7-1.8-1.2-2.8-1.5l-0.2-0.1l-0.1,0.2
			c-0.4,1-0.7,2-0.8,3.1c-1-0.3-2.1-0.4-3.2-0.3l-0.2,0l0,0.2c0,1.1,0.1,2.2,0.5,3.2c-1.1,0.1-2.1,0.4-3.1,0.9l-0.2,0.1l0.1,0.2
			c0.4,1,0.9,1.9,1.6,2.7c-0.9,0.5-1.8,1.2-2.5,2l-0.1,0.1l0.1,0.1c0.7,0.8,1.6,1.4,2.6,1.9c-0.7,0.8-1.2,1.8-1.5,2.8l-0.1,0.2
			l0.2,0.1c0.2,0.1,0.3,0.1,0.5,0.2c0.9,0.3,1.7,0.5,2.6,0.6c-0.3,1-0.4,2.1-0.3,3.2l0,0.2l0.2,0c0.2,0,0.3,0,0.5,0
			c0.9,0,1.8-0.2,2.7-0.5c0.1,1.1,0.4,2.1,0.9,3.1l0.1,0.2l0.2-0.1c1-0.4,1.9-0.9,2.7-1.6c0.5,0.9,1.2,1.8,2,2.5l0.1,0.1l0.1-0.1
			c0.8-0.7,1.5-1.6,1.9-2.6c0.7,0.6,1.5,1,2.4,1.4c0.2,0.1,0.3,0.1,0.5,0.2l0.2,0.1l0.1-0.2c0.5-1,0.7-2,0.8-3.1
			c0.9,0.3,1.8,0.4,2.7,0.4c0.2,0,0.3,0,0.5,0l0.2,0l0-0.2c0-1.1-0.1-2.2-0.5-3.2c1.1-0.1,2.1-0.4,3.1-0.9l0.2-0.1l-0.1-0.2
			c-0.4-1-0.9-1.9-1.6-2.7c0.9-0.5,1.8-1.2,2.5-2l0.1-0.1L55.5,137.7z M54,133c-0.3,1-0.8,1.8-1.5,2.6c-0.9-0.4-1.8-0.6-2.8-0.7
			c0.6-0.8,1.1-1.7,1.4-2.6C52.1,132.3,53.1,132.6,54,133z M48.2,146.3c-0.9-0.3-1.8-0.8-2.6-1.5c0-0.1,0-0.3,0-0.4
			c0-0.8-0.1-1.6-0.4-2.3c0.6,0.5,1.3,0.8,2,1.1c0.1,0.1,0.3,0.1,0.4,0.1C48.1,144.3,48.2,145.3,48.2,146.3z M45.3,144.5
			C45.3,144.5,45.3,144.5,45.3,144.5C45.2,144.5,45.2,144.5,45.3,144.5c-0.7-0.6-1.3-1.4-1.7-2.2c0-0.7,0-1.4-0.2-2
			c0.4,0.5,0.8,1,1.4,1.5C45.1,142.6,45.2,143.5,45.3,144.5z M40.7,148c-0.4-0.9-0.7-1.9-0.8-2.9c0.1-0.1,0.2-0.2,0.3-0.3
			c0.6-0.6,1-1.2,1.4-1.9c0.1,0.8,0.3,1.5,0.7,2.2c0.1,0.1,0.1,0.2,0.2,0.4C42,146.5,41.4,147.3,40.7,148z M39.5,144.6
			c0,0.1,0,0.3,0,0.4c-0.7,0.7-1.6,1.2-2.5,1.6c0-1,0.1-2,0.4-2.9c0.1,0,0.2-0.1,0.4-0.1c0.7-0.3,1.4-0.7,2-1.2
			C39.5,143,39.5,143.8,39.5,144.6z M36.6,129.8c0.9,0.3,1.8,0.8,2.6,1.5c0,0.1,0,0.3,0,0.4c0,0.8,0.1,1.6,0.4,2.3
			c-0.6-0.5-1.3-0.8-2-1.1c-0.1-0.1-0.3-0.1-0.4-0.1C36.8,131.7,36.6,130.8,36.6,129.8z M39.6,131.6
			C39.6,131.6,39.6,131.6,39.6,131.6C39.6,131.6,39.6,131.6,39.6,131.6c0.7,0.6,1.3,1.4,1.7,2.2c0,0.7,0,1.4,0.2,2
			c-0.4-0.5-0.8-1-1.4-1.5C39.8,133.5,39.6,132.6,39.6,131.6z M44.2,128.1c0.4,0.9,0.7,1.9,0.8,2.9c-0.1,0.1-0.2,0.2-0.3,0.3
			c-0.5,0.6-1,1.2-1.4,1.9c-0.1-0.8-0.3-1.5-0.6-2.2c-0.1-0.1-0.1-0.2-0.2-0.4C42.9,129.6,43.5,128.8,44.2,128.1z M45.4,131.5
			c0-0.1,0-0.3,0-0.4c0.7-0.7,1.6-1.2,2.5-1.6c0,1-0.1,2-0.4,2.9c-0.1,0.1-0.3,0.1-0.4,0.2c-0.7,0.3-1.4,0.7-2,1.2
			C45.3,133.1,45.4,132.3,45.4,131.5z M42.6,137c0-0.8,0.2-1.5,0.4-2.2C43,135.5,42.9,136.2,42.6,137C42.6,137,42.6,137,42.6,137
			C42.6,137,42.6,137,42.6,137z M43.2,137.5C43.2,137.5,43.2,137.5,43.2,137.5c0.6-0.5,1.2-1,1.9-1.3
			C44.6,136.7,43.9,137.1,43.2,137.5C43.2,137.5,43.2,137.5,43.2,137.5z M44.1,136.3c0.4-0.6,0.6-1.2,0.9-1.9
			c0.7-0.6,1.4-1.1,2.3-1.5c0,0,0.1,0,0.1,0c0,0,0,0,0,0.1c-0.3,0.9-0.8,1.7-1.4,2.4C45.2,135.7,44.6,136,44.1,136.3z M43,137.2
			C43,137.2,43,137.2,43,137.2c0,0,0-0.1,0-0.1c0.3-0.7,0.8-1.4,1.3-1.9C43.9,135.9,43.5,136.6,43,137.2z M42.2,137.1
			c-0.3-0.8-0.4-1.5-0.5-2.3C42,135.5,42.1,136.2,42.2,137.1C42.2,137,42.2,137,42.2,137.1z M41.9,137.2
			C41.9,137.2,41.9,137.2,41.9,137.2c-0.5-0.6-1-1.2-1.3-1.9C41,135.9,41.5,136.5,41.9,137.2C41.9,137.2,41.9,137.2,41.9,137.2z
			 M40.7,136.4c-0.6-0.4-1.2-0.6-1.8-0.9c-0.6-0.7-1.1-1.5-1.5-2.3c0,0,0,0,0-0.1c0,0,0,0,0.1,0c0.9,0.3,1.7,0.8,2.4,1.4
			C40,135.2,40.3,135.8,40.7,136.4z M41.6,137.5C41.6,137.5,41.6,137.5,41.6,137.5c-0.7-0.3-1.4-0.8-2-1.3
			C40.3,136.6,41,137,41.6,137.5z M40.2,137.2c-0.7-0.1-1.3-0.1-2-0.1c-0.8-0.4-1.6-0.9-2.3-1.6c0,0,0,0,0,0c0,0,0,0,0.1,0
			c0.9,0,1.9,0.1,2.7,0.4C39.1,136.4,39.7,136.8,40.2,137.2z M41.4,137.9c-0.8,0-1.5-0.2-2.2-0.4C39.9,137.5,40.7,137.6,41.4,137.9z
			 M40.1,138.1c-0.7,0.2-1.3,0.4-1.9,0.7c-0.9,0-1.8-0.2-2.7-0.6c0,0,0,0-0.1,0c0,0,0,0,0,0c0.9-0.4,1.8-0.6,2.7-0.7
			C38.8,137.8,39.4,138,40.1,138.1z M41.4,138.3c-0.7,0.3-1.5,0.4-2.3,0.5C39.9,138.5,40.7,138.3,41.4,138.3z M40.2,139
			c-0.5,0.4-1,0.9-1.5,1.4c-0.9,0.3-1.8,0.5-2.8,0.5c0,0,0,0-0.1,0c0,0,0,0,0,0c0.7-0.7,1.4-1.2,2.2-1.7
			C38.9,139.2,39.6,139.1,40.2,139z M41.6,138.6C41.6,138.6,41.6,138.6,41.6,138.6C41.6,138.6,41.6,138.6,41.6,138.6
			c-0.6,0.5-1.2,1-1.9,1.3C40.3,139.4,40.9,139,41.6,138.6z M40.8,139.8c-0.4,0.6-0.6,1.2-0.9,1.8c-0.7,0.6-1.5,1.2-2.3,1.5
			c0,0,0,0,0,0c0,0,0,0,0-0.1c0.3-0.9,0.8-1.7,1.4-2.4C39.6,140.4,40.2,140.1,40.8,139.8z M41.9,138.9c-0.3,0.7-0.8,1.4-1.3,2
			C40.9,140.2,41.4,139.5,41.9,138.9z M42.2,139.1c0,0.8-0.2,1.5-0.4,2.2C41.9,140.5,42,139.8,42.2,139.1z M42.6,139
			c0.3,0.8,0.5,1.5,0.5,2.3C42.9,140.6,42.7,139.8,42.6,139C42.6,139,42.6,139,42.6,139z M43,138.9C43,138.9,43,138.9,43,138.9
			c0.5,0.6,1,1.2,1.3,1.9C43.8,140.2,43.3,139.6,43,138.9C43,138.9,43,138.9,43,138.9z M44.1,139.7c0.6,0.4,1.2,0.6,1.8,0.9
			c0.6,0.7,1.1,1.5,1.5,2.3c0,0,0,0,0,0.1c0,0,0,0-0.1,0c-0.9-0.3-1.7-0.8-2.4-1.4C44.8,140.8,44.5,140.3,44.1,139.7z M43.3,138.6
			C43.3,138.6,43.3,138.6,43.3,138.6c0.8,0.4,1.4,0.8,2,1.3C44.6,139.5,43.9,139.1,43.3,138.6z M44.7,138.9c0.7,0.1,1.3,0.1,2,0.1
			c0.8,0.4,1.6,0.9,2.3,1.6c0,0,0,0,0,0c0,0,0,0-0.1,0c-0.9,0-1.9-0.1-2.7-0.4C45.7,139.7,45.2,139.3,44.7,138.9z M43.5,138.3
			C43.5,138.3,43.4,138.2,43.5,138.3C43.4,138.2,43.5,138.2,43.5,138.3c0.8,0,1.5,0.1,2.2,0.4C45,138.6,44.2,138.5,43.5,138.3z
			 M44.8,138c0.7-0.2,1.3-0.4,1.9-0.7c0.9,0,1.8,0.2,2.7,0.6c0,0,0,0,0.1,0c0,0-0.1,0-0.1,0c-0.9,0.4-1.8,0.6-2.7,0.7
			C46.1,138.3,45.5,138.1,44.8,138z M43.5,137.8c0,0-0.1,0-0.1,0c0,0,0,0,0,0c0.8-0.3,1.6-0.5,2.4-0.5
			C45,137.6,44.3,137.8,43.5,137.8z M44.6,137.1c0.5-0.4,1-0.9,1.5-1.4c0.9-0.3,1.8-0.5,2.8-0.5c0,0,0,0,0.1,0c0,0,0,0-0.1,0.1
			c-0.6,0.7-1.4,1.2-2.2,1.6C46,136.9,45.3,137,44.6,137.1z M48.8,134.8c-0.8,0-1.6,0.1-2.3,0.4c0.5-0.6,0.8-1.3,1.1-2
			c0-0.1,0.1-0.3,0.1-0.4c0.9-0.3,1.9-0.5,2.9-0.5c-0.3,0.9-0.8,1.8-1.5,2.6C49.1,134.8,49,134.8,48.8,134.8z M44.6,134.3
			c-0.5,0.5-0.9,1-1.3,1.5c0.1-0.7,0.1-1.3,0.1-2c0.4-0.8,0.9-1.6,1.6-2.3c0,0,0,0,0.1-0.1c0,0,0,0,0,0.1
			C45,132.5,44.9,133.4,44.6,134.3z M43,133.7c-0.3,0.6-0.5,1.2-0.6,1.9c-0.2-0.7-0.4-1.3-0.7-1.9c0-0.9,0.2-1.8,0.6-2.7
			c0,0,0,0,0-0.1c0,0,0,0,0,0.1C42.7,131.9,42.9,132.8,43,133.7z M41.9,130.9c-0.3,0.7-0.5,1.5-0.5,2.2c-0.4-0.7-0.9-1.3-1.4-1.8
			c-0.1-0.1-0.2-0.2-0.3-0.3c0-1,0.3-2,0.6-2.9c0.7,0.7,1.3,1.4,1.8,2.3C42,130.7,41.9,130.8,41.9,130.9z M37,133.4
			c0.3,0.7,0.7,1.4,1.2,2c-0.7-0.2-1.5-0.3-2.3-0.3c-0.1,0-0.3,0-0.4,0c-0.7-0.7-1.2-1.6-1.6-2.5c1,0,2,0.1,2.9,0.4
			C36.9,133.1,36.9,133.3,37,133.4z M35.6,135.8c0.6,0.5,1.2,1,1.9,1.4c-0.8,0.1-1.5,0.3-2.3,0.7c-0.1,0.1-0.2,0.1-0.4,0.2
			c-0.9-0.4-1.7-1-2.4-1.7c0.9-0.4,1.9-0.7,2.9-0.8C35.4,135.6,35.5,135.7,35.6,135.8z M34.9,138.4c0.1,0.1,0.3,0.1,0.4,0.2
			c0.7,0.3,1.5,0.5,2.2,0.5c-0.7,0.4-1.3,0.9-1.8,1.5c-0.1,0.1-0.2,0.2-0.3,0.3c-1,0-2-0.3-2.9-0.7C33.2,139.5,34,138.9,34.9,138.4z
			 M35.6,141.3c0.1,0,0.3,0,0.4,0c0.8,0,1.6-0.1,2.3-0.4c-0.5,0.6-0.8,1.3-1.1,2c0,0.1-0.1,0.3-0.1,0.4c-0.9,0.3-1.9,0.5-2.9,0.5
			C34.5,142.9,35,142,35.6,141.3z M40.3,141.8c0.5-0.5,0.9-1,1.3-1.6c-0.1,0.7-0.1,1.3-0.1,2c-0.4,0.9-0.9,1.6-1.6,2.3c0,0,0,0,0,0
			c0,0,0,0,0-0.1C39.8,143.6,40,142.7,40.3,141.8z M41.9,142.3c0.3-0.6,0.5-1.3,0.6-1.9c0.2,0.7,0.4,1.3,0.7,1.9
			c0,0.9-0.2,1.8-0.6,2.7c0,0,0,0,0,0.1c0,0,0,0,0-0.1C42.2,144.2,41.9,143.3,41.9,142.3z M43,145.2c0.3-0.7,0.5-1.5,0.5-2.2
			c0.4,0.7,0.9,1.3,1.4,1.8c0.1,0.1,0.2,0.2,0.3,0.3c0,1-0.3,2-0.6,2.9c-0.7-0.7-1.3-1.4-1.8-2.3C42.9,145.4,42.9,145.3,43,145.2z
			 M47.9,142.7c-0.3-0.7-0.7-1.4-1.2-2c0.7,0.2,1.5,0.3,2.3,0.3c0.1,0,0.3,0,0.4,0c0.7,0.7,1.2,1.6,1.6,2.5c-1,0-2-0.1-2.9-0.4
			C48,143,47.9,142.8,47.9,142.7z M49.2,140.3c-0.6-0.5-1.2-1-1.9-1.4c0.8-0.1,1.5-0.3,2.2-0.6c0.1-0.1,0.3-0.1,0.4-0.2
			c0.9,0.4,1.7,1,2.4,1.7c-0.9,0.4-1.9,0.7-2.9,0.8C49.4,140.5,49.3,140.4,49.2,140.3z M49.9,137.7c-0.1-0.1-0.2-0.1-0.4-0.2
			c-0.7-0.3-1.5-0.5-2.2-0.5c0.6-0.4,1.2-0.9,1.8-1.4c0.1-0.1,0.2-0.2,0.3-0.3c1,0,2,0.3,2.9,0.6C51.6,136.6,50.8,137.2,49.9,137.7z
			 M51.2,128.9c0.1,1-0.1,2-0.4,3c-1,0-2,0.1-2.9,0.4c0.3-0.9,0.4-1.9,0.3-2.9C49.2,129.1,50.2,128.9,51.2,128.9z M47,126.2
			c0.4,0.9,0.7,1.9,0.8,2.9c-0.9,0.4-1.8,0.9-2.5,1.5c-0.1-1-0.4-1.9-0.8-2.8C45.2,127.2,46.1,126.6,47,126.2z M42.2,125.4
			c0.8,0.7,1.4,1.5,1.8,2.3c-0.7,0.7-1.3,1.5-1.8,2.4c-0.5-0.9-1.1-1.6-1.8-2.3C40.8,126.9,41.4,126.1,42.2,125.4z M37.3,126.5
			c1,0.3,1.9,0.8,2.6,1.5c-0.4,0.9-0.6,1.8-0.7,2.8c-0.8-0.6-1.7-1.1-2.6-1.4C36.7,128.4,36.9,127.4,37.3,126.5z M33.3,129.3
			c1-0.1,2,0.1,3,0.4c0,1,0.1,2,0.4,2.9c-0.9-0.3-1.9-0.4-2.9-0.3C33.4,131.3,33.3,130.3,33.3,129.3z M30.6,133.5
			c0.9-0.4,1.9-0.7,2.9-0.8c0.4,0.9,0.9,1.8,1.5,2.5c-1,0.1-1.9,0.4-2.8,0.8C31.5,135.3,31,134.4,30.6,133.5z M29.8,138.3
			c0.7-0.8,1.5-1.4,2.3-1.8c0.7,0.7,1.5,1.3,2.4,1.8c-0.9,0.5-1.6,1.1-2.3,1.8C31.3,139.6,30.5,139,29.8,138.3z M30.8,143.2
			c0.3-1,0.8-1.9,1.5-2.6c0.9,0.4,1.9,0.6,2.8,0.7c-0.6,0.8-1.1,1.7-1.4,2.6C32.7,143.8,31.8,143.6,30.8,143.2z M33.6,147.2
			c-0.1-1,0.1-2,0.4-3c1,0,2-0.1,2.9-0.4c-0.3,1-0.4,1.9-0.3,2.9C35.7,147,34.7,147.2,33.6,147.2z M37.8,149.8
			c-0.4-0.9-0.7-1.9-0.8-2.9c0.9-0.4,1.8-0.9,2.5-1.5c0.1,1,0.4,1.9,0.8,2.8C39.6,148.9,38.8,149.5,37.8,149.8z M42.7,150.7
			c-0.8-0.7-1.4-1.5-1.8-2.3c0.7-0.7,1.3-1.5,1.8-2.4c0.5,0.9,1.1,1.6,1.8,2.3C44,149.2,43.4,150,42.7,150.7z M47.5,149.6
			c-1-0.3-1.9-0.8-2.6-1.5c0.4-0.9,0.6-1.8,0.7-2.8c0.8,0.6,1.7,1.1,2.6,1.4C48.2,147.7,47.9,148.7,47.5,149.6z M51.6,146.8
			c-1,0.1-2-0.1-3-0.4c0-1-0.1-2-0.4-2.9c0.9,0.3,1.9,0.4,2.9,0.3C51.4,144.8,51.6,145.8,51.6,146.8z M54.2,142.6
			c-0.9,0.4-1.9,0.7-2.9,0.8c-0.4-0.9-0.9-1.8-1.5-2.5c1-0.1,1.9-0.4,2.8-0.8C53.3,140.8,53.9,141.7,54.2,142.6z M52.7,139.6
			c-0.7-0.7-1.5-1.3-2.4-1.8c0.9-0.5,1.6-1.1,2.3-1.8c0.9,0.4,1.7,1,2.5,1.8C54.4,138.5,53.6,139.2,52.7,139.6z"/>
		<path fill="#DBB65B" d="M36.9,89.6c-0.7-0.8-1.6-1.5-2.6-1.9c0.7-0.8,1.2-1.8,1.5-2.8l0.1-0.2l-0.2-0.1c-1-0.4-2-0.7-3.1-0.8
			c0.3-1,0.4-2.1,0.3-3.2l0-0.2l-0.2,0c-1.1,0-2.2,0.1-3.2,0.5c-0.1-1.1-0.4-2.1-0.9-3.1l-0.1-0.2l-0.2,0.1c-1,0.4-1.9,0.9-2.7,1.6
			c-0.5-0.9-1.2-1.8-2-2.5l-0.1-0.1l-0.1,0.1c-0.8,0.7-1.5,1.6-1.9,2.6c-0.8-0.7-1.8-1.2-2.8-1.5l-0.2-0.1l-0.1,0.2
			c-0.4,1-0.7,2-0.8,3.1c-1-0.3-2.1-0.4-3.2-0.3l-0.2,0l0,0.2c0,1.1,0.1,2.2,0.5,3.2c-1.1,0.1-2.1,0.4-3.1,0.9l-0.2,0.1l0.1,0.2
			c0.4,1,0.9,1.9,1.6,2.7c-0.9,0.5-1.8,1.2-2.5,2l-0.1,0.1l0.1,0.1c0.7,0.8,1.6,1.4,2.6,1.9c-0.7,0.8-1.2,1.8-1.5,2.8l-0.1,0.2
			l0.2,0.1c0.2,0.1,0.3,0.1,0.5,0.2c0.9,0.3,1.7,0.5,2.6,0.6c-0.3,1-0.4,2.1-0.3,3.2l0,0.2l0.2,0c0.2,0,0.3,0,0.5,0
			c0.9,0,1.8-0.2,2.7-0.5c0.1,1.1,0.4,2.1,0.9,3.1l0.1,0.2l0.2-0.1c1-0.4,1.9-0.9,2.7-1.6c0.5,0.9,1.2,1.8,2,2.5l0.1,0.1l0.1-0.1
			c0.8-0.7,1.5-1.6,1.9-2.6c0.7,0.6,1.5,1,2.4,1.4c0.2,0.1,0.3,0.1,0.5,0.2l0.2,0.1l0.1-0.2c0.5-1,0.7-2,0.8-3.1
			c0.9,0.3,1.8,0.4,2.7,0.4c0.2,0,0.3,0,0.5,0l0.2,0l0-0.2c0-1.1-0.1-2.2-0.5-3.2c1.1-0.1,2.1-0.4,3.1-0.9l0.2-0.1l-0.1-0.2
			c-0.4-1-0.9-1.9-1.6-2.7c0.9-0.5,1.8-1.2,2.5-2l0.1-0.1L36.9,89.6z M35.4,84.9c-0.3,1-0.8,1.8-1.5,2.6c-0.9-0.4-1.8-0.6-2.8-0.7
			c0.6-0.8,1.1-1.7,1.4-2.6C33.5,84.3,34.5,84.5,35.4,84.9z M29.7,98.3c-0.9-0.3-1.8-0.8-2.6-1.5c0-0.1,0-0.3,0-0.4
			c0-0.8-0.1-1.6-0.4-2.3c0.6,0.5,1.3,0.8,2,1.1c0.1,0.1,0.3,0.1,0.4,0.1C29.5,96.3,29.7,97.3,29.7,98.3z M26.7,96.4
			C26.7,96.4,26.7,96.4,26.7,96.4C26.7,96.5,26.7,96.4,26.7,96.4C26,95.8,25.4,95,25,94.2c0-0.7,0-1.4-0.2-2c0.4,0.5,0.9,1,1.4,1.5
			C26.5,94.5,26.7,95.5,26.7,96.4z M22.1,100c-0.4-0.9-0.7-1.9-0.8-2.9c0.1-0.1,0.2-0.2,0.3-0.3c0.6-0.6,1-1.2,1.4-1.9
			c0.1,0.8,0.3,1.5,0.7,2.2c0.1,0.1,0.1,0.2,0.2,0.4C23.4,98.4,22.8,99.3,22.1,100z M20.9,96.5c0,0.1,0,0.3,0,0.4
			c-0.7,0.7-1.6,1.2-2.5,1.6c0-1,0.1-2,0.4-2.9c0.1,0,0.2-0.1,0.4-0.1c0.7-0.3,1.4-0.7,2-1.2C21,95,20.9,95.7,20.9,96.5z M18.1,81.7
			c0.9,0.3,1.8,0.8,2.6,1.5c0,0.1,0,0.3,0,0.4c0,0.8,0.1,1.6,0.4,2.3c-0.6-0.5-1.3-0.8-2-1.1c-0.1-0.1-0.3-0.1-0.4-0.1
			C18.2,83.7,18.1,82.7,18.1,81.7z M21,83.6C21,83.6,21,83.6,21,83.6C21,83.5,21.1,83.6,21,83.6c0.7,0.6,1.3,1.4,1.7,2.2
			c0,0.7,0,1.4,0.2,2c-0.4-0.5-0.9-1-1.4-1.5C21.2,85.5,21,84.5,21,83.6z M25.6,80c0.4,0.9,0.7,1.9,0.8,2.9
			c-0.1,0.1-0.2,0.2-0.3,0.3c-0.5,0.6-1,1.2-1.4,1.9c-0.1-0.8-0.3-1.5-0.6-2.2c-0.1-0.1-0.1-0.2-0.2-0.4
			C24.3,81.6,24.9,80.7,25.6,80z M26.8,83.5c0-0.1,0-0.3,0-0.4c0.7-0.7,1.6-1.2,2.5-1.6c0,1-0.1,2-0.4,2.9c-0.1,0.1-0.3,0.1-0.4,0.2
			c-0.7,0.3-1.4,0.7-2,1.2C26.7,85,26.8,84.3,26.8,83.5z M24,88.9c0-0.8,0.2-1.5,0.4-2.2C24.4,87.4,24.3,88.2,24,88.9
			C24.1,88.9,24,89,24,88.9C24,89,24,88.9,24,88.9z M24.7,89.4C24.7,89.4,24.7,89.4,24.7,89.4c0.6-0.5,1.2-1,1.9-1.3
			C26,88.6,25.4,89.1,24.7,89.4C24.7,89.4,24.7,89.4,24.7,89.4z M25.5,88.3c0.4-0.6,0.6-1.2,0.9-1.9c0.7-0.6,1.4-1.1,2.3-1.5
			c0,0,0.1,0,0.1,0c0,0,0,0,0,0.1c-0.3,0.9-0.8,1.7-1.4,2.4C26.7,87.6,26.1,87.9,25.5,88.3z M24.4,89.2
			C24.4,89.2,24.4,89.2,24.4,89.2c0,0,0-0.1,0-0.1c0.3-0.7,0.8-1.4,1.3-1.9C25.4,87.9,24.9,88.5,24.4,89.2z M23.6,89
			c-0.3-0.8-0.4-1.5-0.5-2.3C23.4,87.4,23.6,88.2,23.6,89C23.6,89,23.6,89,23.6,89z M23.3,89.2C23.3,89.2,23.3,89.2,23.3,89.2
			c-0.5-0.6-1-1.2-1.3-1.9C22.5,87.8,22.9,88.5,23.3,89.2C23.3,89.2,23.3,89.2,23.3,89.2z M22.1,88.4c-0.6-0.4-1.2-0.6-1.8-0.9
			c-0.6-0.7-1.1-1.5-1.5-2.3c0,0,0,0,0-0.1c0,0,0,0,0.1,0c0.9,0.3,1.7,0.8,2.4,1.4C21.5,87.2,21.8,87.8,22.1,88.4z M23,89.5
			C23,89.5,23,89.5,23,89.5c-0.7-0.3-1.4-0.8-2-1.3C21.7,88.5,22.4,88.9,23,89.5z M21.7,89.2c-0.7-0.1-1.3-0.1-2-0.1
			c-0.9-0.4-1.6-0.9-2.3-1.6c0,0,0,0,0,0c0,0,0,0,0.1,0c0.9,0,1.9,0.1,2.7,0.4C20.6,88.3,21.1,88.8,21.7,89.2z M22.8,89.8
			c-0.8,0-1.5-0.2-2.2-0.4C21.4,89.5,22.1,89.6,22.8,89.8z M21.5,90.1c-0.7,0.2-1.3,0.4-1.9,0.7c-0.9,0-1.8-0.2-2.7-0.6
			c0,0,0,0-0.1,0c0,0,0,0,0,0c0.9-0.4,1.8-0.6,2.7-0.7C20.2,89.7,20.8,89.9,21.5,90.1z M22.9,90.2c-0.7,0.3-1.5,0.4-2.3,0.5
			C21.3,90.5,22.1,90.3,22.9,90.2z M21.7,91c-0.5,0.4-1,0.8-1.5,1.4c-0.9,0.3-1.8,0.5-2.8,0.5c0,0,0,0-0.1,0c0,0,0,0,0,0
			c0.7-0.7,1.4-1.2,2.2-1.7C20.3,91.2,21,91.1,21.7,91z M23,90.6C23.1,90.6,23.1,90.6,23,90.6C23.1,90.6,23.1,90.6,23,90.6
			c-0.6,0.5-1.2,1-1.9,1.3C21.7,91.4,22.3,90.9,23,90.6z M22.2,91.7c-0.4,0.6-0.6,1.2-0.9,1.8c-0.7,0.6-1.5,1.2-2.3,1.5c0,0,0,0,0,0
			c0,0,0,0,0-0.1c0.3-0.9,0.8-1.7,1.4-2.4C21.1,92.4,21.7,92.1,22.2,91.7z M23.3,90.9c-0.3,0.7-0.8,1.4-1.3,2
			C22.4,92.1,22.8,91.5,23.3,90.9z M23.7,91c0,0.8-0.2,1.5-0.4,2.2C23.3,92.5,23.4,91.7,23.7,91z M24.1,91c0.3,0.8,0.5,1.5,0.5,2.3
			C24.3,92.6,24.1,91.8,24.1,91C24.1,91,24.1,91,24.1,91z M24.4,90.8C24.4,90.8,24.4,90.8,24.4,90.8c0.5,0.6,1,1.2,1.3,1.9
			C25.2,92.2,24.8,91.5,24.4,90.8C24.4,90.8,24.4,90.8,24.4,90.8z M25.6,91.6c0.6,0.4,1.2,0.6,1.8,0.9c0.6,0.7,1.1,1.5,1.5,2.3
			c0,0,0,0,0,0.1c0,0,0,0-0.1,0c-0.9-0.3-1.7-0.8-2.4-1.4C26.3,92.8,25.9,92.2,25.6,91.6z M24.7,90.5C24.7,90.6,24.8,90.6,24.7,90.5
			c0.8,0.4,1.4,0.8,2,1.3C26,91.5,25.3,91.1,24.7,90.5z M26.1,90.9c0.7,0.1,1.3,0.1,2,0.1c0.8,0.4,1.6,0.9,2.3,1.6c0,0,0,0,0,0
			c0,0,0,0-0.1,0c-0.9,0-1.9-0.1-2.7-0.4C27.2,91.7,26.7,91.2,26.1,90.9z M24.9,90.2C24.9,90.2,24.9,90.2,24.9,90.2
			C24.9,90.2,24.9,90.2,24.9,90.2c0.8,0,1.5,0.1,2.2,0.4C26.4,90.6,25.7,90.4,24.9,90.2z M26.3,90c0.7-0.2,1.3-0.4,1.9-0.7
			c0.9,0,1.8,0.2,2.7,0.6c0,0,0,0,0.1,0c0,0-0.1,0-0.1,0c-0.9,0.4-1.8,0.6-2.7,0.7C27.6,90.3,26.9,90.1,26.3,90z M24.9,89.8
			c0,0-0.1,0-0.1,0c0,0,0,0,0,0c0.8-0.3,1.6-0.5,2.4-0.5C26.5,89.5,25.7,89.7,24.9,89.8z M26,89c0.5-0.4,1-0.8,1.5-1.4
			c0.9-0.3,1.8-0.5,2.8-0.5c0,0,0,0,0.1,0c0,0,0,0-0.1,0.1c-0.6,0.7-1.4,1.2-2.2,1.6C27.4,88.8,26.7,88.9,26,89z M30.3,86.8
			c-0.8,0-1.6,0.1-2.3,0.4c0.5-0.6,0.8-1.3,1.1-2c0-0.1,0.1-0.3,0.1-0.4c0.9-0.3,1.9-0.5,2.9-0.5c-0.3,0.9-0.8,1.8-1.5,2.6
			C30.5,86.8,30.4,86.8,30.3,86.8z M26,86.2c-0.5,0.5-0.9,1-1.3,1.5c0.1-0.7,0.1-1.3,0.1-2c0.4-0.8,0.9-1.6,1.6-2.3c0,0,0,0,0.1-0.1
			c0,0,0,0,0,0.1C26.5,84.4,26.3,85.3,26,86.2z M24.4,85.7c-0.3,0.6-0.5,1.2-0.6,1.9c-0.2-0.7-0.4-1.3-0.7-1.9
			c0-0.9,0.2-1.8,0.6-2.7c0,0,0,0,0-0.1c0,0,0,0,0,0.1C24.1,83.9,24.3,84.8,24.4,85.7z M23.3,82.9c-0.3,0.7-0.5,1.5-0.5,2.2
			c-0.4-0.7-0.9-1.3-1.4-1.8c-0.1-0.1-0.2-0.2-0.3-0.3c0-1,0.3-2,0.6-2.9c0.7,0.7,1.3,1.4,1.8,2.3C23.4,82.6,23.4,82.7,23.3,82.9z
			 M18.4,85.3c0.3,0.7,0.7,1.4,1.2,2c-0.7-0.2-1.5-0.3-2.3-0.3c-0.1,0-0.3,0-0.4,0c-0.7-0.7-1.2-1.6-1.6-2.5c1,0,2,0.1,2.9,0.4
			C18.3,85.1,18.4,85.2,18.4,85.3z M17.1,87.8c0.6,0.5,1.2,1,1.9,1.4c-0.8,0.1-1.5,0.3-2.3,0.7c-0.1,0.1-0.2,0.1-0.4,0.2
			c-0.9-0.4-1.7-1-2.4-1.7c0.9-0.4,1.9-0.7,2.9-0.8C16.9,87.6,17,87.7,17.1,87.8z M16.3,90.4c0.1,0.1,0.3,0.1,0.4,0.2
			c0.7,0.3,1.5,0.5,2.2,0.5c-0.7,0.4-1.3,0.9-1.8,1.5c-0.1,0.1-0.2,0.2-0.3,0.3c-1,0-2-0.3-2.9-0.7C14.7,91.4,15.5,90.8,16.3,90.4z
			 M17.1,93.2c0.1,0,0.3,0,0.4,0c0.8,0,1.6-0.1,2.3-0.4c-0.5,0.6-0.8,1.3-1.1,2c0,0.1-0.1,0.3-0.1,0.4c-0.9,0.3-1.9,0.5-2.9,0.5
			C15.9,94.9,16.4,94,17.1,93.2z M21.7,93.8c0.5-0.5,0.9-1,1.3-1.6c-0.1,0.7-0.1,1.3-0.1,2c-0.4,0.9-0.9,1.6-1.6,2.3c0,0,0,0,0,0
			c0,0,0,0,0-0.1C21.3,95.6,21.4,94.6,21.7,93.8z M23.3,94.3c0.3-0.6,0.5-1.3,0.6-1.9c0.2,0.7,0.4,1.3,0.7,1.9
			c0,0.9-0.2,1.8-0.6,2.7c0,0,0,0,0,0.1c0,0,0,0,0-0.1C23.6,96.1,23.4,95.2,23.3,94.3z M24.4,97.1c0.3-0.7,0.5-1.5,0.5-2.2
			c0.4,0.7,0.9,1.3,1.4,1.8c0.1,0.1,0.2,0.2,0.3,0.3c0,1-0.3,2-0.6,2.9c-0.7-0.7-1.3-1.4-1.8-2.3C24.3,97.4,24.3,97.3,24.4,97.1z
			 M29.3,94.7c-0.3-0.7-0.7-1.4-1.2-2c0.7,0.2,1.5,0.3,2.3,0.3c0.1,0,0.3,0,0.4,0c0.7,0.7,1.2,1.6,1.6,2.5c-1,0-2-0.1-2.9-0.4
			C29.4,94.9,29.3,94.8,29.3,94.7z M30.7,92.2c-0.6-0.5-1.2-1-1.9-1.4c0.8-0.1,1.5-0.3,2.2-0.6c0.1-0.1,0.3-0.1,0.4-0.2
			c0.9,0.4,1.7,1,2.4,1.7c-0.9,0.4-1.9,0.7-2.9,0.8C30.9,92.4,30.8,92.3,30.7,92.2z M31.4,89.6c-0.1-0.1-0.2-0.1-0.4-0.2
			c-0.7-0.3-1.5-0.5-2.2-0.5c0.6-0.4,1.2-0.9,1.8-1.4c0.1-0.1,0.2-0.2,0.3-0.3c1,0,2,0.3,2.9,0.6C33,88.5,32.3,89.2,31.4,89.6z
			 M32.6,80.9c0.1,1-0.1,2-0.4,3c-1,0-2,0.1-2.9,0.4c0.3-0.9,0.4-1.9,0.3-2.9C30.6,81,31.6,80.9,32.6,80.9z M28.4,78.2
			c0.4,0.9,0.7,1.9,0.8,2.9c-0.9,0.4-1.8,0.9-2.5,1.5c-0.1-1-0.4-1.9-0.8-2.8C26.7,79.1,27.5,78.6,28.4,78.2z M23.6,77.3
			c0.8,0.7,1.4,1.5,1.8,2.3c-0.7,0.7-1.3,1.5-1.8,2.4c-0.5-0.9-1.1-1.6-1.8-2.3C22.3,78.9,22.9,78.1,23.6,77.3z M18.8,78.4
			c1,0.3,1.9,0.8,2.6,1.5c-0.4,0.9-0.6,1.8-0.7,2.8c-0.8-0.6-1.7-1.1-2.6-1.4C18.1,80.3,18.4,79.3,18.8,78.4z M14.7,81.2
			c1-0.1,2,0.1,3,0.4c0,1,0.1,2,0.4,2.9c-0.9-0.3-1.9-0.4-2.9-0.3C14.9,83.3,14.7,82.3,14.7,81.2z M12.1,85.4C13,85,14,84.7,15,84.6
			c0.4,0.9,0.9,1.8,1.5,2.5c-1,0.1-1.9,0.4-2.8,0.8C13,87.2,12.4,86.4,12.1,85.4z M11.2,90.3c0.7-0.8,1.5-1.4,2.3-1.8
			c0.7,0.7,1.5,1.3,2.4,1.8c-0.9,0.5-1.6,1.1-2.3,1.8C12.7,91.6,11.9,91,11.2,90.3z M12.3,95.1c0.3-1,0.8-1.9,1.5-2.6
			c0.9,0.4,1.9,0.6,2.8,0.7c-0.6,0.8-1.1,1.7-1.4,2.6C14.2,95.7,13.2,95.5,12.3,95.1z M15.1,99.1c-0.1-1,0.1-2,0.4-3
			c1,0,2-0.1,2.9-0.4c-0.3,1-0.4,1.9-0.3,2.9C17.1,99,16.1,99.2,15.1,99.1z M19.3,101.8c-0.4-0.9-0.7-1.9-0.8-2.9
			c0.9-0.4,1.8-0.9,2.5-1.5c0.1,1,0.4,1.9,0.8,2.8C21.1,100.9,20.2,101.4,19.3,101.8z M24.1,102.7c-0.8-0.7-1.4-1.5-1.8-2.3
			c0.7-0.7,1.3-1.5,1.8-2.4c0.5,0.9,1.1,1.6,1.8,2.3C25.4,101.1,24.9,101.9,24.1,102.7z M29,101.6c-1-0.3-1.9-0.8-2.6-1.5
			c0.4-0.9,0.6-1.8,0.7-2.8c0.8,0.6,1.7,1.1,2.6,1.4C29.6,99.7,29.4,100.7,29,101.6z M33,98.8c-1,0.1-2-0.1-3-0.4c0-1-0.1-2-0.4-2.9
			c0.9,0.3,1.9,0.4,2.9,0.3C32.8,96.7,33,97.7,33,98.8z M35.7,94.6c-0.9,0.4-1.9,0.7-2.9,0.8c-0.4-0.9-0.9-1.8-1.5-2.5
			c1-0.1,1.9-0.4,2.8-0.8C34.8,92.8,35.3,93.6,35.7,94.6z M34.2,91.6c-0.7-0.7-1.5-1.3-2.4-1.8c0.9-0.5,1.6-1.1,2.3-1.8
			c0.9,0.4,1.7,1,2.5,1.8C35.8,90.5,35,91.1,34.2,91.6z"/>
		<path fill="#DBB65B" d="M55,42c-0.7-0.8-1.6-1.5-2.6-1.9c0.7-0.8,1.2-1.8,1.5-2.8L54,37L53.8,37c-1-0.4-2-0.7-3.1-0.8
			c0.3-1,0.4-2.1,0.3-3.2l0-0.2l-0.2,0c-1.1,0-2.2,0.1-3.2,0.5c-0.1-1.1-0.4-2.1-0.9-3.1l-0.1-0.2l-0.2,0.1c-1,0.4-1.9,0.9-2.7,1.6
			c-0.5-0.9-1.2-1.8-2-2.5l-0.1-0.1l-0.1,0.1c-0.8,0.7-1.5,1.6-1.9,2.6c-0.8-0.7-1.8-1.2-2.8-1.5l-0.2-0.1l-0.1,0.2
			c-0.4,1-0.7,2-0.8,3.1c-1-0.3-2.1-0.4-3.2-0.3l-0.2,0l0,0.2c0,1.1,0.1,2.2,0.5,3.2c-1.1,0.1-2.1,0.4-3.1,0.9l-0.2,0.1l0.1,0.2
			c0.4,1,0.9,1.9,1.6,2.7c-0.9,0.5-1.8,1.2-2.5,2l-0.1,0.1l0.1,0.1c0.7,0.8,1.6,1.4,2.6,1.9c-0.7,0.8-1.2,1.8-1.5,2.8l-0.1,0.2
			l0.2,0.1c0.2,0.1,0.3,0.1,0.5,0.2c0.9,0.3,1.7,0.5,2.6,0.6c-0.3,1-0.4,2.1-0.3,3.2l0,0.2l0.2,0c0.2,0,0.3,0,0.5,0
			c0.9,0,1.8-0.2,2.7-0.5c0.1,1.1,0.4,2.1,0.9,3.1l0.1,0.2l0.2-0.1c1-0.4,1.9-0.9,2.7-1.6c0.5,0.9,1.2,1.8,2,2.5l0.1,0.1l0.1-0.1
			c0.8-0.7,1.5-1.6,1.9-2.6c0.7,0.6,1.5,1,2.4,1.4c0.2,0.1,0.3,0.1,0.5,0.2l0.2,0.1l0.1-0.2c0.5-1,0.7-2,0.8-3.1
			c0.9,0.3,1.8,0.4,2.7,0.4c0.2,0,0.3,0,0.5,0l0.2,0l0-0.2c0-1.1-0.1-2.2-0.5-3.2c1.1-0.1,2.1-0.4,3.1-0.9l0.2-0.1L54.2,47
			c-0.4-1-0.9-1.9-1.6-2.7c0.9-0.5,1.8-1.2,2.5-2l0.1-0.1L55,42z M53.5,37.2c-0.3,1-0.8,1.8-1.5,2.6c-0.9-0.4-1.8-0.6-2.8-0.7
			c0.6-0.8,1.1-1.7,1.4-2.6C51.6,36.6,52.6,36.8,53.5,37.2z M47.8,50.6c-0.9-0.3-1.8-0.8-2.6-1.5c0-0.1,0-0.3,0-0.4
			c0-0.8-0.1-1.6-0.4-2.3c0.6,0.5,1.3,0.8,2,1.1c0.1,0,0.3,0.1,0.4,0.1C47.6,48.6,47.8,49.6,47.8,50.6z M44.8,48.7
			C44.8,48.8,44.8,48.8,44.8,48.7C44.8,48.8,44.8,48.8,44.8,48.7c-0.7-0.6-1.3-1.4-1.7-2.2c0-0.7,0-1.4-0.2-2c0.4,0.5,0.8,1,1.4,1.5
			C44.6,46.9,44.8,47.8,44.8,48.7z M40.2,52.3c-0.4-0.9-0.7-1.9-0.8-2.9c0.1-0.1,0.2-0.2,0.3-0.3c0.6-0.6,1-1.2,1.4-1.9
			c0.1,0.8,0.3,1.5,0.7,2.2c0.1,0.1,0.1,0.2,0.2,0.4C41.5,50.8,40.9,51.6,40.2,52.3z M39,48.9c0,0.1,0,0.3,0,0.4
			c-0.7,0.7-1.6,1.2-2.5,1.6c0-1,0.1-2,0.4-2.9c0.1,0,0.2-0.1,0.4-0.1c0.7-0.3,1.4-0.7,2-1.2C39.1,47.3,39,48.1,39,48.9z M36.2,34.1
			c0.9,0.3,1.8,0.8,2.6,1.5c0,0.1,0,0.3,0,0.4c0,0.8,0.1,1.6,0.4,2.3c-0.6-0.5-1.3-0.8-2-1.1c-0.1,0-0.3-0.1-0.4-0.1
			C36.3,36,36.2,35,36.2,34.1z M39.1,35.9C39.1,35.9,39.1,35.9,39.1,35.9C39.1,35.9,39.2,35.9,39.1,35.9c0.7,0.6,1.3,1.4,1.7,2.2
			c0,0.7,0,1.4,0.2,2c-0.4-0.5-0.8-1-1.4-1.5C39.3,37.8,39.2,36.9,39.1,35.9z M43.7,32.4c0.4,0.9,0.7,1.9,0.8,2.9
			c-0.1,0.1-0.2,0.2-0.3,0.3c-0.5,0.6-1,1.2-1.4,1.9c-0.1-0.8-0.3-1.5-0.6-2.2c-0.1-0.1-0.1-0.2-0.2-0.4
			C42.4,33.9,43,33.1,43.7,32.4z M44.9,35.8c0-0.1,0-0.3,0-0.4c0.7-0.7,1.6-1.2,2.5-1.6c0,1-0.1,2-0.4,2.9c-0.1,0.1-0.3,0.1-0.4,0.2
			c-0.7,0.3-1.4,0.7-2,1.2C44.8,37.4,44.9,36.6,44.9,35.8z M42.1,41.3c0-0.8,0.2-1.5,0.4-2.2C42.5,39.8,42.4,40.5,42.1,41.3
			C42.2,41.3,42.1,41.3,42.1,41.3C42.1,41.3,42.1,41.3,42.1,41.3z M42.8,41.8C42.8,41.8,42.8,41.8,42.8,41.8c0.6-0.5,1.2-1,1.9-1.3
			C44.1,41,43.5,41.4,42.8,41.8C42.8,41.8,42.8,41.8,42.8,41.8z M43.6,40.6c0.4-0.6,0.6-1.2,0.9-1.9c0.7-0.6,1.4-1.1,2.3-1.5
			c0,0,0.1,0,0.1,0c0,0,0,0,0,0.1c-0.3,0.9-0.8,1.7-1.4,2.4C44.8,39.9,44.2,40.3,43.6,40.6z M42.5,41.5
			C42.5,41.5,42.5,41.5,42.5,41.5c0,0,0-0.1,0-0.1c0.3-0.7,0.8-1.4,1.3-1.9C43.5,40.2,43,40.9,42.5,41.5z M41.7,41.4
			c-0.3-0.8-0.4-1.5-0.5-2.3C41.5,39.7,41.7,40.5,41.7,41.4C41.7,41.3,41.7,41.3,41.7,41.4z M41.4,41.5
			C41.4,41.5,41.4,41.5,41.4,41.5c-0.5-0.6-1-1.2-1.3-1.9C40.6,40.2,41,40.8,41.4,41.5C41.4,41.5,41.4,41.5,41.4,41.5z M40.2,40.7
			c-0.6-0.4-1.2-0.6-1.8-0.9c-0.6-0.7-1.1-1.5-1.5-2.3c0,0,0,0,0-0.1c0,0,0,0,0.1,0c0.9,0.3,1.7,0.8,2.4,1.4
			C39.6,39.5,39.9,40.1,40.2,40.7z M41.1,41.8C41.1,41.8,41.1,41.8,41.1,41.8c-0.7-0.3-1.4-0.8-2-1.3C39.8,40.8,40.5,41.3,41.1,41.8
			z M39.8,41.5c-0.7-0.1-1.3-0.1-2-0.1c-0.8-0.4-1.6-0.9-2.3-1.6c0,0,0,0,0,0c0,0,0,0,0.1,0c0.9,0,1.9,0.1,2.7,0.4
			C38.7,40.7,39.2,41.1,39.8,41.5z M41,42.2c-0.8,0-1.5-0.2-2.2-0.4C39.5,41.8,40.2,41.9,41,42.2z M39.6,42.4
			c-0.7,0.2-1.3,0.4-1.9,0.7c-0.9,0-1.8-0.2-2.7-0.6c0,0,0,0-0.1,0c0,0,0,0,0,0c0.9-0.4,1.8-0.6,2.7-0.7
			C38.3,42.1,39,42.3,39.6,42.4z M41,42.6c-0.7,0.3-1.5,0.4-2.3,0.5C39.4,42.8,40.2,42.6,41,42.6z M39.8,43.3
			c-0.5,0.4-1,0.8-1.5,1.4c-0.9,0.3-1.8,0.5-2.8,0.5c0,0,0,0-0.1,0c0,0,0,0,0,0c0.7-0.7,1.4-1.2,2.2-1.7
			C38.4,43.5,39.1,43.4,39.8,43.3z M41.2,42.9C41.2,42.9,41.2,42.9,41.2,42.9C41.2,42.9,41.2,42.9,41.2,42.9c-0.6,0.5-1.2,1-1.9,1.3
			C39.8,43.7,40.4,43.3,41.2,42.9z M40.3,44.1c-0.4,0.6-0.6,1.2-0.9,1.8c-0.7,0.6-1.5,1.2-2.3,1.5c0,0,0,0,0,0c0,0,0,0,0-0.1
			c0.3-0.9,0.8-1.7,1.4-2.4C39.2,44.7,39.8,44.4,40.3,44.1z M41.4,43.2c-0.3,0.7-0.8,1.4-1.3,2C40.5,44.5,40.9,43.8,41.4,43.2z
			 M41.8,43.4c0,0.8-0.2,1.5-0.4,2.2C41.4,44.8,41.5,44.1,41.8,43.4z M42.2,43.3c0.3,0.8,0.5,1.5,0.5,2.3
			C42.4,44.9,42.2,44.1,42.2,43.3C42.2,43.3,42.2,43.3,42.2,43.3z M42.5,43.1C42.5,43.1,42.5,43.2,42.5,43.1c0.5,0.6,1,1.2,1.3,1.9
			C43.3,44.5,42.9,43.9,42.5,43.1C42.5,43.2,42.5,43.2,42.5,43.1z M43.7,44c0.6,0.4,1.2,0.6,1.8,0.9c0.6,0.7,1.1,1.5,1.5,2.3
			c0,0,0,0,0,0.1c0,0,0,0-0.1,0c-0.9-0.3-1.7-0.8-2.4-1.4C44.4,45.1,44.1,44.5,43.7,44z M42.8,42.9C42.8,42.9,42.9,42.9,42.8,42.9
			c0.8,0.4,1.4,0.8,2,1.3C44.1,43.8,43.4,43.4,42.8,42.9z M44.2,43.2c0.7,0.1,1.3,0.1,2,0.1c0.8,0.4,1.6,0.9,2.3,1.6c0,0,0,0,0,0
			c0,0,0,0-0.1,0c-0.9,0-1.9-0.1-2.7-0.4C45.3,44,44.8,43.6,44.2,43.2z M43,42.6C43,42.5,43,42.5,43,42.6C43,42.5,43,42.5,43,42.6
			c0.8,0,1.5,0.1,2.2,0.4C44.5,42.9,43.8,42.8,43,42.6z M44.4,42.3c0.7-0.2,1.3-0.4,1.9-0.7c0.9,0,1.8,0.2,2.7,0.6c0,0,0,0,0.1,0
			c0,0-0.1,0-0.1,0c-0.9,0.4-1.8,0.6-2.7,0.7C45.7,42.6,45,42.4,44.4,42.3z M43,42.1c0,0-0.1,0-0.1,0c0,0,0,0,0,0
			c0.8-0.3,1.6-0.5,2.4-0.5C44.6,41.9,43.8,42.1,43,42.1z M44.1,41.4c0.5-0.4,1-0.8,1.5-1.4c0.9-0.3,1.8-0.5,2.8-0.5c0,0,0,0,0.1,0
			c0,0,0,0-0.1,0.1c-0.6,0.7-1.4,1.2-2.2,1.6C45.5,41.2,44.8,41.2,44.1,41.4z M48.4,39.1c-0.8,0-1.6,0.1-2.3,0.4
			c0.5-0.6,0.8-1.3,1.1-2c0-0.1,0.1-0.3,0.1-0.4c0.9-0.3,1.9-0.5,2.9-0.5c-0.3,0.9-0.8,1.8-1.5,2.6C48.6,39.1,48.5,39.1,48.4,39.1z
			 M44.1,38.6c-0.5,0.5-0.9,1-1.3,1.5c0.1-0.7,0.1-1.3,0.1-2c0.4-0.8,0.9-1.6,1.6-2.3c0,0,0,0,0.1-0.1c0,0,0,0,0,0.1
			C44.6,36.8,44.4,37.7,44.1,38.6z M42.5,38c-0.3,0.6-0.5,1.2-0.6,1.9c-0.2-0.7-0.4-1.3-0.7-1.9c0-0.9,0.2-1.8,0.6-2.7
			c0,0,0,0,0-0.1c0,0,0,0,0,0.1C42.2,36.2,42.4,37.1,42.5,38z M41.4,35.2c-0.3,0.7-0.5,1.5-0.5,2.2c-0.4-0.7-0.9-1.3-1.4-1.8
			c-0.1-0.1-0.2-0.2-0.3-0.3c0-1,0.3-2,0.6-2.9c0.7,0.7,1.3,1.4,1.8,2.3C41.5,35,41.5,35.1,41.4,35.2z M36.5,37.7
			c0.3,0.7,0.7,1.4,1.2,2c-0.7-0.2-1.5-0.3-2.3-0.3c-0.1,0-0.3,0-0.4,0c-0.7-0.7-1.2-1.6-1.6-2.5c1,0,2,0.1,2.9,0.4
			C36.4,37.4,36.5,37.5,36.5,37.7z M35.2,40.1c0.6,0.5,1.2,1,1.9,1.4c-0.8,0.1-1.5,0.3-2.3,0.7c-0.1,0.1-0.2,0.1-0.4,0.2
			c-0.9-0.4-1.7-1-2.4-1.7c0.9-0.4,1.9-0.7,2.9-0.8C35,39.9,35.1,40,35.2,40.1z M34.4,42.7c0.1,0.1,0.3,0.1,0.4,0.2
			c0.7,0.3,1.5,0.5,2.2,0.5c-0.7,0.4-1.3,0.9-1.8,1.5c-0.1,0.1-0.2,0.2-0.3,0.3c-1,0-2-0.3-2.9-0.7C32.8,43.8,33.6,43.2,34.4,42.7z
			 M35.2,45.6c0.1,0,0.3,0,0.4,0c0.8,0,1.6-0.1,2.3-0.4c-0.5,0.6-0.8,1.3-1.1,2c0,0.1-0.1,0.3-0.1,0.4c-0.9,0.3-1.9,0.5-2.9,0.5
			C34,47.2,34.5,46.3,35.2,45.6z M39.8,46.1c0.5-0.5,0.9-1,1.3-1.6c-0.1,0.7-0.1,1.3-0.1,2c-0.4,0.9-0.9,1.6-1.6,2.3c0,0,0,0,0,0
			c0,0,0,0,0-0.1C39.4,47.9,39.5,47,39.8,46.1z M41.4,46.6c0.3-0.6,0.5-1.3,0.6-1.9c0.2,0.7,0.4,1.3,0.7,1.9c0,0.9-0.2,1.8-0.6,2.7
			c0,0,0,0,0,0.1c0,0,0,0,0-0.1C41.7,48.5,41.5,47.5,41.4,46.6z M42.5,49.5c0.3-0.7,0.5-1.5,0.5-2.2c0.4,0.7,0.9,1.3,1.4,1.8
			c0.1,0.1,0.2,0.2,0.3,0.3c0,1-0.3,2-0.6,2.9c-0.7-0.7-1.3-1.4-1.8-2.3C42.4,49.7,42.5,49.6,42.5,49.5z M47.4,47
			c-0.3-0.7-0.7-1.4-1.2-2c0.7,0.2,1.5,0.3,2.3,0.3c0.1,0,0.3,0,0.4,0c0.7,0.7,1.2,1.6,1.6,2.5c-1,0-2-0.1-2.9-0.4
			C47.5,47.3,47.4,47.1,47.4,47z M48.8,44.6c-0.6-0.5-1.2-1-1.9-1.4c0.8-0.1,1.5-0.3,2.2-0.6c0.1-0.1,0.3-0.1,0.4-0.2
			c0.9,0.4,1.7,1,2.4,1.7c-0.9,0.4-1.9,0.7-2.9,0.8C49,44.8,48.9,44.7,48.8,44.6z M49.5,42c-0.1-0.1-0.2-0.1-0.4-0.2
			c-0.7-0.3-1.5-0.5-2.2-0.5c0.6-0.4,1.2-0.9,1.8-1.4c0.1-0.1,0.2-0.2,0.3-0.3c1,0,2,0.3,2.9,0.6C51.1,40.9,50.4,41.5,49.5,42z
			 M50.7,33.2c0.1,1-0.1,2-0.4,3c-1,0-2,0.1-2.9,0.4c0.3-0.9,0.4-1.9,0.3-2.9C48.7,33.4,49.7,33.2,50.7,33.2z M46.5,30.5
			c0.4,0.9,0.7,1.9,0.8,2.9c-0.9,0.4-1.8,0.9-2.5,1.5c-0.1-1-0.4-1.9-0.8-2.8C44.8,31.5,45.6,30.9,46.5,30.5z M41.7,29.7
			c0.8,0.7,1.4,1.5,1.8,2.3c-0.7,0.7-1.3,1.5-1.8,2.4c-0.5-0.9-1.1-1.6-1.8-2.3C40.4,31.2,41,30.4,41.7,29.7z M36.9,30.8
			c1,0.3,1.9,0.8,2.6,1.5c-0.4,0.9-0.6,1.8-0.7,2.8c-0.8-0.6-1.7-1.1-2.6-1.4C36.2,32.7,36.5,31.7,36.9,30.8z M32.8,33.6
			c1-0.1,2,0.1,3,0.4c0,1,0.1,2,0.4,2.9c-0.9-0.3-1.9-0.4-2.9-0.3C33,35.6,32.8,34.6,32.8,33.6z M30.2,37.8c0.9-0.4,1.9-0.7,2.9-0.8
			c0.4,0.9,0.9,1.8,1.5,2.5c-1,0.1-1.9,0.4-2.8,0.8C31.1,39.6,30.5,38.7,30.2,37.8z M29.3,42.6c0.7-0.8,1.5-1.4,2.3-1.8
			c0.7,0.7,1.5,1.3,2.4,1.8c-0.9,0.5-1.6,1.1-2.3,1.8C30.8,43.9,30,43.3,29.3,42.6z M30.4,47.5c0.3-1,0.8-1.9,1.5-2.6
			c0.9,0.4,1.9,0.6,2.8,0.7c-0.6,0.8-1.1,1.7-1.4,2.6C32.3,48.1,31.3,47.9,30.4,47.5z M33.2,51.5c-0.1-1,0.1-2,0.4-3
			c1,0,2-0.1,2.9-0.4c-0.3,1-0.4,1.9-0.3,2.9C35.2,51.3,34.2,51.5,33.2,51.5z M37.4,54.1c-0.4-0.9-0.7-1.9-0.8-2.9
			c0.9-0.4,1.8-0.9,2.5-1.5c0.1,1,0.4,1.9,0.8,2.8C39.2,53.2,38.3,53.8,37.4,54.1z M42.2,55c-0.8-0.7-1.4-1.5-1.8-2.3
			c0.7-0.7,1.3-1.5,1.8-2.4c0.5,0.9,1.1,1.6,1.8,2.3C43.5,53.5,43,54.3,42.2,55z M47.1,53.9c-1-0.3-1.9-0.8-2.6-1.5
			c0.4-0.9,0.6-1.8,0.7-2.8c0.8,0.6,1.7,1.1,2.6,1.4C47.7,52,47.5,53,47.1,53.9z M51.1,51.1c-1,0.1-2-0.1-3-0.4c0-1-0.1-2-0.4-2.9
			c0.9,0.3,1.9,0.4,2.9,0.3C50.9,49.1,51.1,50.1,51.1,51.1z M53.8,46.9c-0.9,0.4-1.9,0.7-2.9,0.8c-0.4-0.9-0.9-1.8-1.5-2.5
			c1-0.1,1.9-0.4,2.8-0.8C52.9,45.1,53.4,46,53.8,46.9z M52.3,43.9c-0.7-0.7-1.5-1.3-2.4-1.8c0.9-0.5,1.6-1.1,2.3-1.8
			c0.9,0.4,1.7,1,2.5,1.8C53.9,42.8,53.2,43.5,52.3,43.9z"/>
		<g>
			<path fill="#DBB65B" d="M179.1,89.3c-4.3-3-6.6-6.8-8.6-10.2c-2.8-4.7-5.2-8.8-11.8-8.8c-0.1,0-0.2,0-0.3,0
				c-0.7-2.8-2.3-5.1-4.5-6.7c0.4-2.7-0.1-5.5-1.6-8c0.1-0.1,0.1-0.1,0.2-0.2c4.6-4.6,3.4-9.2,2.1-14.6c-1-3.8-2.1-8.2-1.2-13.3
				l0.2-1.1l-1.1,0.2c-5.1,0.9-9.5-0.2-13.3-1.2c-5.3-1.4-9.9-2.5-14.6,2.1c-0.1,0.1-0.1,0.1-0.2,0.2c-2.5-1.5-5.3-2-8-1.6
				c-1.6-2.2-4-3.8-6.7-4.5c0-0.1,0-0.2,0-0.3c0-6.5-4.1-9-8.8-11.8c-3.4-2-7.3-4.3-10.2-8.6L90,0l-0.7,0.9c-3,4.3-6.8,6.6-10.2,8.6
				c-4.7,2.8-8.8,5.2-8.8,11.8c0,0.1,0,0.2,0,0.3c-2.8,0.7-5.1,2.3-6.7,4.5c-2.7-0.4-5.5,0.1-8,1.6c-0.1-0.1-0.1-0.1-0.2-0.2
				c-4.6-4.6-9.2-3.4-14.6-2.1c-3.8,1-8.2,2.1-13.3,1.2l-1.1-0.2l0.2,1.1c0.9,5.1-0.2,9.5-1.2,13.3c-1.4,5.3-2.5,9.9,2.1,14.6
				c0.1,0.1,0.1,0.1,0.2,0.2c-1.5,2.5-2,5.3-1.6,8c-2.2,1.6-3.8,4-4.5,6.7c-0.1,0-0.2,0-0.3,0c-6.5,0-9,4.1-11.8,8.8
				c-2,3.4-4.3,7.3-8.6,10.2L0,90l0.9,0.7c4.3,3,6.6,6.8,8.6,10.2c2.8,4.7,5.2,8.8,11.8,8.8c0.1,0,0.2,0,0.3,0
				c0.7,2.8,2.3,5.1,4.5,6.7c-0.4,2.7,0.1,5.5,1.6,8c-0.1,0.1-0.1,0.1-0.2,0.2c-4.6,4.6-3.4,9.2-2.1,14.6c1,3.8,2.1,8.2,1.2,13.3
				l-0.2,1.1l1.1-0.2c5.1-0.9,9.5,0.2,13.3,1.2c2.5,0.6,4.8,1.2,7,1.2c2.6,0,5.1-0.8,7.6-3.3c0.1-0.1,0.1-0.1,0.2-0.2
				c2.5,1.5,5.3,2,8,1.6c1.6,2.2,4,3.8,6.7,4.5c0,0.1,0,0.2,0,0.3c0,6.5,4.1,9,8.8,11.8c3.4,2,7.3,4.3,10.2,8.6L90,180l0.7-0.9
				c3-4.3,6.8-6.6,10.2-8.6c4.7-2.8,8.8-5.2,8.8-11.8c0-0.1,0-0.2,0-0.3c2.8-0.7,5.1-2.3,6.7-4.5c2.7,0.4,5.5-0.1,8-1.6
				c0.1,0.1,0.1,0.1,0.2,0.2c2.5,2.5,5,3.3,7.6,3.3c2.2,0,4.5-0.6,7-1.2c3.8-1,8.2-2.1,13.3-1.2l1.1,0.2l-0.2-1.1
				c-0.9-5.1,0.2-9.5,1.2-13.3c1.4-5.3,2.5-9.9-2.1-14.6c-0.1-0.1-0.1-0.1-0.2-0.2c1.5-2.5,2-5.3,1.6-8c2.2-1.6,3.8-4,4.5-6.7
				c0.1,0,0.2,0,0.3,0c6.5,0,9-4.1,11.8-8.8c2-3.4,4.3-7.3,8.6-10.2L180,90L179.1,89.3z M124.1,29.4l0.6,0.4l0.5-0.5
				c0.2-0.2,0.4-0.4,0.6-0.6c4-4,8-3,13-1.7c3.7,1,7.9,2,12.9,1.4c-0.7,5,0.4,9.2,1.4,12.9c1.3,5.1,2.3,9.1-1.7,13
				c-0.2,0.2-0.4,0.4-0.6,0.6l-0.5,0.5l0.4,0.6c1.4,2,1.9,4.4,1.8,6.7c-1.7-0.9-3.6-1.4-5.7-1.4c-1.5,0-2.9,0.3-4.3,0.8l-0.5-1
				c-1.3-2.8-4.1-4.7-7.2-4.7h-11v-11c0-3.1-1.8-5.9-4.7-7.2l-1-0.5c0.5-1.4,0.8-2.8,0.8-4.3c0-2-0.5-4-1.4-5.7
				C119.7,27.4,122.1,28,124.1,29.4z M145.8,74.4c0.9,2.3,0.3,4.9-1.5,6.7l-7.8,7.8L123.7,76V57.9h11c2.5,0,4.7,1.5,5.8,3.7l1.1,2.5
				l0.7-0.3c1.4-0.6,2.8-0.9,4.3-0.9c2,0,3.8,0.5,5.4,1.5c-0.4,1.8-1.4,3.5-2.8,4.9c-1.1,1.1-2.3,1.9-3.7,2.4l-0.8,0.3L145.8,74.4z
				 M145.6,108.4c1.4,0.5,2.7,1.3,3.7,2.4c1.4,1.4,2.3,3.1,2.8,4.9c-1.6,1-3.4,1.5-5.4,1.5c-1.5,0-3-0.3-4.3-0.9l-0.7-0.3l-1.1,2.5
				c-1,2.3-3.3,3.7-5.8,3.7h-11V104l12.8-12.8l7.8,7.8c1.8,1.8,2.3,4.4,1.5,6.7l-0.9,2.5L145.6,108.4z M123.7,101.7V78.3L135.4,90
				L123.7,101.7z M115.7,27.9c1,1.6,1.5,3.4,1.5,5.4c0,1.5-0.3,3-0.9,4.3l-0.3,0.7l2.5,1.1c2.3,1,3.7,3.3,3.7,5.8v11H104L91.1,43.4
				l7.8-7.8c1.8-1.8,4.4-2.3,6.7-1.5l2.5,0.9l0.3-0.8c0.5-1.4,1.3-2.7,2.4-3.7C112.2,29.3,113.9,28.3,115.7,27.9z M103.3,122.1H76.7
				l-18.8-18.8V76.7l18.8-18.8h26.6l18.8,18.8v26.6L103.3,122.1z M122.1,105.6v16.6h-16.6L122.1,105.6z M101.7,123.7L90,135.4
				l-11.7-11.7L101.7,123.7L101.7,123.7z M74.4,122.1H57.9v-16.6L74.4,122.1z M57.9,74.4V57.9h16.6L57.9,74.4z M78.3,56.3L90,44.6
				l11.7,11.7L78.3,56.3L78.3,56.3z M105.6,57.9h16.6v16.6L105.6,57.9z M71.3,23l0.7-0.1l0-0.7c0-0.3,0-0.6,0-0.9
				c0-5.6,3.5-7.7,8-10.4c3.3-2,7-4.2,10.1-8.1c3.1,4,6.8,6.2,10.1,8.1c4.5,2.7,8,4.8,8,10.4c0,0.3,0,0.6,0,0.9l0,0.7l0.7,0.1
				c2.4,0.5,4.5,1.7,6,3.5c-1.9,0.6-3.6,1.6-5,3c-1,1-1.9,2.2-2.5,3.6l-1.1-0.4c-2.9-1.1-6.2-0.4-8.4,1.8L90,42.3l-7.8-7.8
				c-2.2-2.2-5.5-2.9-8.4-1.8l-1.1,0.4c-0.6-1.3-1.4-2.5-2.5-3.6c-1.4-1.4-3.2-2.5-5-3C66.8,24.7,68.9,23.5,71.3,23z M64.3,27.9
				c1.8,0.4,3.5,1.4,4.9,2.8c1.1,1.1,1.9,2.3,2.4,3.7l0.3,0.8l2.5-0.9c2.3-0.9,4.9-0.3,6.7,1.5l7.8,7.8L76,56.3H57.9v-11
				c0-2.5,1.5-4.7,3.7-5.8l2.5-1.1l-0.3-0.7c-0.6-1.4-0.9-2.8-0.9-4.3C62.8,31.3,63.3,29.5,64.3,27.9z M29.4,55.9l0.4-0.6l-0.5-0.5
				c-0.2-0.2-0.4-0.4-0.6-0.6c-4-4-3-8-1.7-13c1-3.7,2-7.9,1.4-12.9c5,0.7,9.2-0.4,12.9-1.4c5.1-1.3,9.1-2.3,13,1.7
				c0.2,0.2,0.4,0.4,0.6,0.6l0.5,0.5l0.6-0.4c2-1.4,4.4-1.9,6.7-1.8c-0.9,1.7-1.4,3.6-1.4,5.7c0,1.5,0.3,2.9,0.8,4.3l-1,0.5
				c-2.8,1.3-4.7,4.1-4.7,7.2v11h-11c-3.1,0-5.9,1.8-7.2,4.7l-0.5,1c-1.4-0.5-2.8-0.8-4.3-0.8c-2,0-4,0.5-5.7,1.4
				C27.4,60.3,28,57.9,29.4,55.9z M34.2,105.6c-0.9-2.3-0.3-4.9,1.5-6.7l7.8-7.8L56.3,104v18.2h-11c-2.5,0-4.7-1.5-5.8-3.7l-1.1-2.5
				l-0.7,0.3c-1.4,0.6-2.8,0.9-4.3,0.9c-2,0-3.8-0.5-5.4-1.5c0.4-1.8,1.4-3.5,2.8-4.9c1.1-1.1,2.3-1.9,3.7-2.4l0.8-0.3L34.2,105.6z
				 M44.6,90l11.7-11.7v23.4L44.6,90z M43.4,88.9l-7.8-7.8c-1.8-1.8-2.3-4.4-1.5-6.7l0.9-2.5l-0.8-0.3c-1.4-0.5-2.7-1.3-3.7-2.4
				c-1.4-1.4-2.3-3.1-2.8-4.9c1.6-1,3.4-1.5,5.4-1.5c1.5,0,3,0.3,4.3,0.9l0.7,0.3l1.1-2.5c1-2.3,3.3-3.7,5.8-3.7h11V76L43.4,88.9z
				 M23,108.7l-0.1-0.7l-0.7,0c-0.3,0-0.6,0-0.9,0c-5.6,0-7.7-3.5-10.4-8c-2-3.3-4.1-7-8.1-10.1c4-3.1,6.2-6.8,8.1-10.1
				c2.7-4.5,4.8-8,10.4-8c0.3,0,0.6,0,0.9,0l0.7,0l0.1-0.7c0.5-2.4,1.7-4.5,3.5-6c0.6,1.9,1.6,3.6,3,5c1,1,2.2,1.9,3.6,2.5l-0.4,1.1
				c-1.1,2.9-0.4,6.2,1.8,8.4l7.8,7.8l-7.8,7.8c-2.2,2.2-2.9,5.5-1.8,8.4l0.4,1.1c-1.3,0.6-2.5,1.4-3.6,2.5c-1.4,1.4-2.5,3.2-3,5
				C24.7,113.2,23.5,111.1,23,108.7z M55.9,150.6l-0.6-0.4l-0.5,0.5c-0.2,0.2-0.4,0.4-0.6,0.6c-4,4-8,2.9-13,1.7
				c-2.9-0.7-6.1-1.6-9.8-1.6c-1,0-2,0.1-3.1,0.2c0.7-5-0.4-9.2-1.4-12.9c-1.3-5.1-2.3-9.1,1.7-13c0.2-0.2,0.4-0.4,0.6-0.6l0.5-0.5
				l-0.4-0.6c-1.4-2-1.9-4.4-1.8-6.7c1.7,0.9,3.6,1.4,5.7,1.4c1.5,0,2.9-0.3,4.3-0.8l0.5,1c1.3,2.8,4.1,4.7,7.2,4.7h11v11
				c0,3.1,1.8,5.9,4.7,7.2l1,0.5c-0.5,1.4-0.8,2.8-0.8,4.3c0,2,0.5,4,1.4,5.7C60.3,152.6,57.9,152,55.9,150.6z M64.3,152.1
				c-1-1.6-1.5-3.4-1.5-5.4c0-1.5,0.3-3,0.9-4.3l0.3-0.7l-2.5-1.1c-2.3-1-3.7-3.3-3.7-5.8v-11H76l12.8,12.8l-7.8,7.8
				c-1.8,1.8-4.4,2.3-6.7,1.5l-2.5-0.9l-0.3,0.8c-0.5,1.4-1.3,2.7-2.4,3.7C67.8,150.7,66.1,151.7,64.3,152.1z M108.7,157l-0.7,0.1
				l0,0.7c0,0.3,0,0.6,0,0.9c0,5.6-3.5,7.7-8,10.4c-3.3,2-7,4.2-10.1,8.1c-3.1-4-6.8-6.2-10.1-8.1c-4.5-2.7-8-4.8-8-10.4
				c0-0.3,0-0.6,0-0.9l0-0.7l-0.7-0.1c-2.4-0.5-4.5-1.7-6-3.5c1.9-0.6,3.6-1.6,5-3c1-1,1.9-2.2,2.5-3.6l1.1,0.4
				c2.9,1.1,6.2,0.4,8.4-1.8l7.8-7.8l7.8,7.8c2.2,2.2,5.5,2.9,8.4,1.8l1.1-0.4c0.6,1.3,1.4,2.5,2.5,3.6c1.4,1.4,3.2,2.5,5,3
				C113.2,155.3,111.1,156.5,108.7,157z M115.7,152.1c-1.8-0.4-3.5-1.4-4.9-2.8c-1.1-1.1-1.9-2.3-2.4-3.7l-0.3-0.8l-2.5,0.9
				c-2.3,0.9-4.9,0.3-6.7-1.5l-7.8-7.8l12.8-12.8h18.2v11c0,2.5-1.5,4.7-3.7,5.8l-2.5,1.1l0.3,0.7c0.6,1.4,0.9,2.8,0.9,4.3
				C117.2,148.7,116.7,150.5,115.7,152.1z M150.6,124.1l-0.4,0.6l0.5,0.5c0.2,0.2,0.4,0.4,0.6,0.6c4,4,2.9,8,1.7,13
				c-1,3.7-2,7.9-1.4,12.9c-5-0.7-9.2,0.4-12.9,1.4c-5.1,1.3-9.1,2.3-13-1.7c-0.2-0.2-0.4-0.4-0.6-0.6l-0.5-0.5l-0.6,0.4
				c-2,1.4-4.4,1.9-6.7,1.8c0.9-1.7,1.4-3.6,1.4-5.7c0-1.5-0.3-2.9-0.8-4.3l1-0.5c2.8-1.3,4.7-4.1,4.7-7.2v-11h11
				c3.1,0,5.9-1.8,7.2-4.7l0.5-1c1.4,0.5,2.8,0.8,4.3,0.8c2,0,4-0.5,5.7-1.4C152.6,119.7,152,122.1,150.6,124.1z M169.1,100.1
				c-2.7,4.5-4.8,8-10.4,8c-0.3,0-0.6,0-0.9,0l-0.7,0l-0.1,0.7c-0.5,2.4-1.7,4.5-3.5,6c-0.6-1.9-1.6-3.6-3-5c-1-1-2.2-1.9-3.6-2.5
				l0.4-1.1c1.1-2.9,0.4-6.2-1.8-8.4l-7.8-7.8l7.8-7.8c2.2-2.2,2.9-5.5,1.8-8.4l-0.4-1.1c1.3-0.6,2.5-1.4,3.6-2.5
				c1.4-1.4,2.5-3.2,3-5c1.8,1.5,3,3.6,3.5,6l0.1,0.7l0.7,0c0.3,0,0.6,0,0.9,0c5.6,0,7.7,3.5,10.4,8c2,3.3,4.2,7,8.1,10.1
				C173.3,93.1,171.1,96.8,169.1,100.1z"/>
			<path fill="#DBB65B" d="M104.9,82.6L104.9,82.6l0.2-0.2l-0.1,0l7.4-17.3L96,74.9l0-0.2L96,74.7l-5.5-18.1l-6.1,18.1l-0.1,0
				l-0.1-0.1l0,0.1L68.3,64.3l6.9,17.8l-18.9,2.3L73,93.6l-13,13.9l18.7-3.7l-1,19.1l12-14.9l11.5,15.2l-0.4-19.1l18.6,4.3
				l-12.6-14.4l0.2-0.1l0.2,0l-0.1,0l16.7-8.5L104.9,82.6z M96,76.7l13.1-7.9l-5.9,13.9l-7.5,1.6L96,76.7z M90.4,61.7l4.4,14.5
				l-4.7,6l-4.6-6L90.4,61.7z M71.5,68.2l12.7,8.3l0.2,7.7l-7.4-1.6L71.5,68.2z M61.2,85.3l15-1.8l5.2,5.8l-6.7,3.5L61.2,85.3z
				 M64.4,105.1l10.3-11l7.8,1.1l-2.8,6.9L64.4,105.1z M79.5,118.2l0.8-15L87,99l2.2,7L79.5,118.2z M87.9,96.7l-5.8,3.6l2.6-6.3
				l-6.8-1l6.1-3.2l-4.6-5.1l6.7,1.5l-0.2-6.8l4.2,5.4l4.2-5.4L94,86.2l6.7-1.4l-4.6,5.1l6,3.2L95.3,94l2.5,6.4l-5.8-3.7l-2.1,6.5
				L87.9,96.7z M90.5,106.5l2.5-7.5l6.2,3.9l0.3,15.5L90.5,106.5z M115,105.9l-14.6-3.4l-2.9-7.2l7.3-1L115,105.9z M105.4,93.1
				l-6.8-3.6l5-5.5l15.1,2.3L105.4,93.1z"/>
		</g>
	</g>
	<g>
		<path fill="#DBB65B" d="M106.7,137.3H73.3l-25.6-21.5L41.9,83l16.7-28.9L90,42.6l31.4,11.4L138.1,83l0,0.3l-5.7,32.6l-0.2,0.2
			L106.7,137.3z M73.9,135.8h32.3l24.7-20.8l5.6-31.8l-16.1-28L90,44.3l-30.3,11l-16.1,28l5.6,31.8L73.9,135.8z"/>
	</g>
</g>
</svg>
